<svg width="57" height="50" viewBox="0 0 57 50" fill="none" xmlns="http://www.w3.org/2000/svg"><path d="M12.1328 16.4539C10.1817 14.7815 7.68067 10.0126 13.2856 4.31673L52.3427 11.3331C54.5178 12.9156 57.4519 17.5606 51.787 23.4804M12.1328 16.4539C8.83071 18.9281 8.96998 24.1538 9.43364 26.5273M12.1328 16.4539L51.787 23.4804M51.787 23.4804C52.5088 25.8231 52.9571 31.2015 49.2753 32.8542M49.2753 32.8542C50.0121 35.7008 50.5037 41.7007 46.2762 44.0468L2.70191 38.2193C1.55364 36.1621 0.247597 30.8138 4.20951 25.8772L9.43364 26.5273M49.2753 32.8542L9.43364 26.5273" stroke="white" stroke-width="1.34237"></path><path d="M15.4442 5.03345C12.3333 8.88621 11.8889 13.9244 12.9258 16.4436" stroke="white" stroke-width="1.00677" stroke-linecap="round"></path><path d="M14.1014 16.7793C10.7447 20.5729 10.5849 24.3666 11.7038 26.847" stroke="white" stroke-width="1.00677" stroke-linecap="round"></path><path d="M40.9497 31.8811C40.0818 34.7882 38.4009 41.073 38.6201 42.9556" stroke="white" stroke-width="1.34237" stroke-linecap="round"></path><path d="M38.5988 31.5454C37.6069 34.5406 35.6858 41.0158 35.9364 42.9555" stroke="white" stroke-width="1.34237" stroke-linecap="round"></path><path d="M15.9827 13.5023C15.9251 13.4562 15.8964 13.4115 15.8965 13.3679C15.9001 13.325 15.9373 13.255 16.0082 13.158C16.079 13.0611 16.1896 12.911 16.3401 12.7077C16.4516 12.5631 16.529 12.4491 16.5721 12.3656C16.6194 12.2792 16.648 12.2169 16.6581 12.1787C16.6682 12.1404 16.6741 12.116 16.6759 12.1054C16.6742 12.0725 16.6819 12.0484 16.699 12.0331C16.7167 12.0143 16.7426 12.0005 16.7768 11.9918C16.7974 11.9771 16.8434 11.9522 16.9147 11.917C16.9859 11.8819 17.0446 11.8355 17.0906 11.7779C17.1349 11.7092 17.183 11.6392 17.2349 11.5681C17.2904 11.4976 17.3615 11.4098 17.4482 11.3046C17.5355 11.196 17.6518 11.0558 17.7969 10.8843C17.8883 10.7727 17.9948 10.6473 18.1163 10.508C18.2414 10.3694 18.3623 10.2446 18.479 10.1336C18.5262 10.0908 18.5734 10.0588 18.6205 10.0377C18.6676 10.0166 18.707 10.0088 18.7388 10.0141C18.8165 10.0272 18.8905 10.0615 18.961 10.117C19.0321 10.1689 19.0926 10.2299 19.1425 10.3001C19.1924 10.3702 19.2234 10.4335 19.2357 10.4901C19.2486 10.5213 19.2455 10.5825 19.2265 10.6737C19.2075 10.7648 19.1816 10.8748 19.149 11.0036C19.1164 11.1324 19.0805 11.2698 19.0413 11.4156C19.0063 11.5586 18.9615 11.7271 18.907 11.9212C18.8524 12.1153 18.7964 12.3182 18.7389 12.5299C18.6849 12.7422 18.6356 12.9481 18.5911 13.1475C18.5471 13.3434 18.5179 13.5164 18.5035 13.6664C18.5016 13.6988 18.4966 13.7288 18.4883 13.7564C18.48 13.784 18.4743 13.8067 18.4714 13.8243C18.4466 13.8419 18.3992 13.843 18.3292 13.8276C18.2586 13.8157 18.1916 13.7934 18.1281 13.7609C18.0646 13.7284 18.032 13.6957 18.0303 13.6628C18.0215 13.6504 18.016 13.6404 18.0136 13.6327C18.0113 13.6251 18.0169 13.5915 18.0306 13.5321C18.0449 13.4692 18.0695 13.3554 18.1046 13.1907L18.2678 12.3851L18.1981 12.3787C18.1663 12.3734 18.1075 12.3671 18.0216 12.3598C17.9392 12.3532 17.8474 12.3486 17.7462 12.346C17.6491 12.3405 17.5588 12.338 17.4752 12.3384C17.3922 12.3353 17.334 12.3363 17.3004 12.3416C17.2686 12.3362 17.2262 12.3508 17.1732 12.3854C17.1237 12.4206 17.0739 12.4685 17.0237 12.529C17.0013 12.576 16.9659 12.6245 16.9175 12.6744C16.8733 12.7214 16.8497 12.7537 16.8467 12.7714C16.819 12.7849 16.7942 12.8025 16.7724 12.8242C16.7541 12.8465 16.745 12.8577 16.745 12.8577C16.7414 12.8789 16.7166 12.9291 16.6705 13.0085C16.625 13.0843 16.5707 13.1695 16.5076 13.2641C16.445 13.3552 16.3827 13.4337 16.3208 13.4994L16.1439 13.6765L15.9827 13.5023ZM17.5556 11.8945C17.5556 11.8945 17.5756 11.8943 17.6156 11.8938C17.6556 11.8933 17.7027 11.894 17.7568 11.8958C17.8151 11.8948 17.8654 11.8978 17.9078 11.905C17.9925 11.8975 18.0623 11.8929 18.117 11.8913C18.1753 11.8902 18.222 11.8927 18.2573 11.8986C18.2932 11.9011 18.3209 11.9094 18.3403 11.9235C18.3514 11.9436 18.362 11.9562 18.372 11.9616C18.3855 11.9675 18.3922 11.9704 18.3922 11.9704C18.397 11.964 18.4103 11.9281 18.4322 11.8628C18.4541 11.7975 18.4805 11.7167 18.5113 11.6202C18.5421 11.5238 18.5735 11.4238 18.6055 11.3203C18.638 11.2133 18.6674 11.1147 18.6935 11.0248C18.7201 10.9312 18.7397 10.8583 18.7522 10.806C18.767 10.7395 18.7754 10.6792 18.7773 10.6251C18.7797 10.5674 18.781 10.5385 18.781 10.5385C18.7598 10.535 18.7126 10.5669 18.6395 10.6345C18.5705 10.6991 18.4865 10.7883 18.3874 10.9023C18.2924 11.0133 18.1957 11.1349 18.0971 11.2672C18.0505 11.3283 18.008 11.3755 17.9697 11.409C17.9349 11.4431 17.9087 11.4586 17.891 11.4556C17.8828 11.4615 17.8586 11.4865 17.8185 11.5305C17.7825 11.5716 17.7418 11.6192 17.6964 11.6733C17.6551 11.7244 17.6179 11.7726 17.5849 11.8178C17.5559 11.8601 17.5462 11.8857 17.5556 11.8945ZM19.1869 14.1902C19.1668 14.2231 19.1162 14.2327 19.035 14.219C18.9538 14.2053 18.8871 14.1704 18.8349 14.1144C18.7996 14.0649 18.7771 14.0266 18.7671 13.9995C18.7601 13.9765 18.7737 13.9389 18.808 13.8866C18.8416 13.8378 18.9001 13.7497 18.9833 13.6221C19.0117 13.5398 19.0507 13.4593 19.1003 13.3805C19.1505 13.2982 19.1874 13.2409 19.211 13.2086C19.2335 13.1616 19.2754 13.0852 19.3368 12.9794C19.4024 12.8706 19.4753 12.7504 19.5556 12.6188C19.6395 12.4877 19.7183 12.3649 19.7921 12.2503C19.8665 12.1322 19.9214 12.0434 19.9568 11.984C20.0407 11.853 20.1275 11.7152 20.2172 11.5706C20.307 11.426 20.4265 11.2447 20.5758 11.0267C20.5959 10.9938 20.5969 10.9558 20.5787 10.9128C20.5606 10.8698 20.5215 10.8432 20.4615 10.8331C20.4327 10.7883 20.4202 10.7445 20.4238 10.7015C20.428 10.655 20.451 10.6262 20.4928 10.6151L21.0076 10.5332C21.1801 10.5224 21.3513 10.5404 21.5213 10.5873C21.6954 10.6312 21.8532 10.7068 21.9948 10.8142C22.1476 10.9417 22.2527 11.0719 22.3101 11.2051C22.3674 11.3382 22.3892 11.4671 22.3755 11.5918C22.3658 11.7136 22.3332 11.8207 22.2777 11.9129C22.2369 11.9823 22.1685 12.0543 22.0724 12.1288C21.9799 12.2039 21.8732 12.2767 21.7524 12.347C21.6352 12.418 21.5138 12.481 21.3884 12.5361C21.267 12.5882 21.1554 12.6256 21.0536 12.6484C20.9582 12.6758 20.8519 12.7033 20.7347 12.7307C20.6182 12.7546 20.506 12.7738 20.3983 12.7882C20.3394 12.7928 20.2712 12.7886 20.1935 12.7755C20.1159 12.7624 20.0588 12.7455 20.0224 12.7248L19.9038 12.879C19.847 13.0001 19.7534 13.1785 19.6228 13.4143C19.4958 13.6506 19.3505 13.9092 19.1869 14.1902ZM21.2719 14.6456C21.2418 14.6514 21.1936 14.6469 21.1271 14.632C21.0642 14.6178 20.9966 14.5773 20.9244 14.5107C20.7845 14.3927 20.648 14.2553 20.5147 14.0985C20.3815 13.9417 20.2365 13.7357 20.0799 13.4805C20.0207 13.3798 19.9791 13.282 19.9552 13.1872C19.9348 13.093 19.9077 12.9741 19.8739 12.8304L19.848 12.532L20.0715 12.4336L20.2723 12.6635C20.3079 12.7966 20.3533 12.9259 20.4083 13.0513C20.4669 13.1774 20.5276 13.2911 20.5904 13.3924C20.6414 13.4773 20.7127 13.5819 20.8042 13.7063C20.8963 13.8271 20.9961 13.9456 21.1036 14.0617C21.211 14.1779 21.31 14.269 21.4005 14.3351C21.4187 14.3563 21.4183 14.3908 21.3994 14.4384C21.3834 14.4901 21.361 14.5372 21.332 14.5795C21.3066 14.6224 21.2866 14.6444 21.2719 14.6456ZM20.288 12.3449C20.3704 12.3515 20.4622 12.3452 20.5634 12.326C20.6688 12.3039 20.7801 12.2791 20.8973 12.2517C21.008 12.2196 21.1175 12.1836 21.2259 12.1438C21.3384 12.1011 21.4412 12.0513 21.5343 11.9944C21.6309 11.9381 21.709 11.8732 21.7686 11.7998C21.8317 11.7269 21.8675 11.644 21.8759 11.5511C21.8837 11.5052 21.8782 11.4516 21.8595 11.3904C21.8408 11.3291 21.8123 11.2717 21.7742 11.2181C21.7396 11.165 21.7005 11.1276 21.657 11.1057C21.5218 11.0466 21.4177 11.0072 21.3448 10.9877C21.2719 10.9681 21.2154 10.9694 21.1753 10.9917C21.1388 11.0146 21.1057 11.0598 21.0761 11.1275C21.0744 11.1381 21.0546 11.1692 21.0168 11.2209C20.979 11.2726 20.9315 11.339 20.8743 11.4201C20.8212 11.4983 20.7668 11.5835 20.7113 11.6758C20.5738 11.8667 20.472 12.0075 20.4059 12.098C20.3439 12.1855 20.305 12.2443 20.289 12.2743C20.2766 12.3048 20.2762 12.3284 20.288 12.3449ZM22.7289 14.69C22.7124 14.7018 22.6956 14.7044 22.6786 14.6979C22.6609 14.6949 22.6342 14.6813 22.5983 14.6571C22.5342 14.6281 22.4808 14.5792 22.438 14.5102C22.3987 14.4419 22.4032 14.3719 22.4516 14.3002C22.4699 14.2779 22.4965 14.2279 22.5314 14.1503C22.5704 14.0697 22.6133 13.9771 22.66 13.8725C22.7067 13.7678 22.7534 13.6632 22.8001 13.5585C22.8468 13.4539 22.8876 13.3627 22.9225 13.2851C22.958 13.204 22.9816 13.1499 22.9934 13.1228C22.9982 13.0946 23.0148 13.0393 23.0432 12.957C23.0752 12.8753 23.1071 12.7826 23.1391 12.6791C23.1905 12.6116 23.2306 12.5349 23.2597 12.449C23.2922 12.3637 23.3153 12.3023 23.3289 12.2646C23.3525 12.2106 23.3786 12.1532 23.4069 12.0927C23.4388 12.0327 23.4672 11.9722 23.492 11.911C23.5157 11.8569 23.5396 11.8011 23.5639 11.7434C23.5917 11.6864 23.6071 11.6491 23.61 11.6314L23.6243 11.5467L23.4284 11.5136C23.3749 11.5082 23.3149 11.4981 23.2484 11.4833C23.1819 11.4684 23.1081 11.4541 23.0269 11.4404C22.8622 11.4054 22.7537 11.3707 22.7014 11.3365C22.6532 11.2993 22.6322 11.2413 22.6382 11.1624C22.6383 11.1189 22.6534 11.0833 22.6835 11.0557C22.7141 11.0246 22.7771 11.0062 22.8725 11.0005C22.9678 10.9948 23.1102 11.0116 23.2996 11.0508C23.4491 11.0688 23.5656 11.0884 23.6491 11.1098C23.7332 11.1276 23.7823 11.1377 23.7964 11.1401C23.8129 11.1284 23.8241 11.1158 23.83 11.1022C23.836 11.0887 23.8436 11.0755 23.8531 11.0626C23.8561 11.0449 23.8611 11.0258 23.8682 11.0052C23.8794 10.9817 23.9001 10.967 23.9301 10.9612C23.9673 10.913 24.0238 10.9008 24.0997 10.9245C24.1796 10.9452 24.2343 10.9871 24.2636 11.0502C24.2723 11.0843 24.2702 11.1185 24.2572 11.1526C24.2477 11.1873 24.2529 11.2208 24.2729 11.2532C24.2894 11.2415 24.3279 11.2389 24.3885 11.2455C24.4491 11.2521 24.5133 11.2593 24.5809 11.2671C24.6621 11.2808 24.7348 11.2913 24.7989 11.2985C24.8636 11.3021 24.9083 11.306 24.933 11.3102C24.9678 11.2979 25.0099 11.2959 25.0593 11.3043C25.1122 11.3132 25.1646 11.3257 25.2163 11.3417C25.2975 11.3554 25.3504 11.3861 25.375 11.4338C25.4038 11.4786 25.422 11.5107 25.4296 11.5302C25.4272 11.5443 25.4248 11.5584 25.4224 11.5725C25.4236 11.5872 25.43 11.6028 25.4417 11.6193C25.4535 11.6358 25.4587 11.6476 25.4576 11.6547C25.457 11.6582 25.4472 11.6729 25.4283 11.6988C25.4118 11.7105 25.385 11.7187 25.3479 11.7233C25.3115 11.7244 25.272 11.7214 25.2297 11.7142C25.205 11.7101 25.162 11.7064 25.1008 11.7034C25.0402 11.6968 24.9887 11.6899 24.9464 11.6827C24.8628 11.6832 24.7813 11.6821 24.7019 11.6796C24.623 11.6735 24.5212 11.6636 24.3965 11.6498C24.3436 11.6409 24.2936 11.6361 24.2465 11.6354C24.2 11.6312 24.1753 11.6379 24.1723 11.6555C24.1582 11.6532 24.1325 11.6869 24.0953 11.7569C24.0616 11.8274 24.0273 11.9015 23.9924 11.9791C23.9557 12.0673 23.9194 12.1429 23.8834 12.2058C23.8509 12.2693 23.8258 12.3104 23.8081 12.3292C23.8198 12.3457 23.8221 12.3642 23.815 12.3848C23.8115 12.406 23.7946 12.4413 23.7645 12.4906C23.742 12.5377 23.7214 12.5741 23.7025 12.6C23.6871 12.6264 23.6771 12.6538 23.6723 12.682C23.6723 12.682 23.6587 12.7088 23.6315 12.7623C23.6085 12.8128 23.583 12.8775 23.5552 12.9563C23.535 13.0328 23.5134 13.0963 23.4904 13.1468C23.4708 13.198 23.4528 13.2294 23.4363 13.2412C23.4363 13.2412 23.4272 13.2523 23.4089 13.2747C23.3912 13.2935 23.38 13.317 23.3752 13.3452C23.3698 13.377 23.3538 13.4287 23.3272 13.5005C23.3047 13.5693 23.281 13.6343 23.2562 13.6954C23.2313 13.7566 23.213 13.7898 23.2012 13.795C23.2353 13.8081 23.222 13.8548 23.1612 13.9353C23.1553 13.9706 23.144 14.005 23.1275 14.0385C23.1109 14.072 23.1015 14.0959 23.0991 14.11C23.0666 14.1735 23.0229 14.2496 22.968 14.3383C22.913 14.4271 22.8617 14.5055 22.8139 14.5737C22.7696 14.6425 22.7413 14.6812 22.7289 14.69ZM25.5258 15.1295C25.3669 15.1244 25.2072 15.092 25.0466 15.0323C24.8855 14.976 24.7489 14.8931 24.6367 14.7834C24.5274 14.6778 24.4618 14.5506 24.4397 14.4016C24.4322 14.3604 24.4258 14.323 24.4206 14.2895C24.4189 14.2565 24.4251 14.2412 24.4392 14.2436C24.4745 14.2496 24.4792 14.2322 24.4534 14.1916C24.4452 14.1757 24.4453 14.143 24.4536 14.0936C24.4626 14.0406 24.4803 13.9892 24.5069 13.9392C24.5341 13.8857 24.5686 13.8534 24.6104 13.8423C24.6563 13.8283 24.7004 13.8357 24.7428 13.8647C24.7857 13.8901 24.8189 13.9193 24.8423 13.9523C24.8658 13.9853 24.8696 14.0059 24.8537 14.0141C24.8537 14.0141 24.8575 14.0347 24.865 14.0759C24.8732 14.1136 24.8696 14.1565 24.8542 14.2048C24.877 14.2631 24.889 14.3105 24.8901 14.3469C24.8953 14.3805 24.9281 14.4224 24.9887 14.4725C25.0286 14.5155 25.0577 14.5477 25.0759 14.5689C25.094 14.5901 25.147 14.6099 25.2346 14.6284C25.2911 14.6379 25.3305 14.6409 25.3529 14.6374C25.3753 14.634 25.3959 14.6193 25.4148 14.5934C25.4372 14.5682 25.4746 14.5291 25.5271 14.4763C25.549 14.411 25.5531 14.3009 25.5393 14.1461C25.529 13.9919 25.5053 13.81 25.468 13.6005C25.4314 13.3874 25.3821 13.163 25.3202 12.9275C25.3056 12.8851 25.2931 12.8412 25.2826 12.7959C25.2756 12.7512 25.2721 12.7288 25.2721 12.7288C25.294 12.6635 25.3009 12.6012 25.2928 12.5417C25.2746 12.5205 25.2691 12.4778 25.2763 12.4137C25.2876 12.3466 25.2942 12.286 25.2961 12.2319C25.3163 12.1554 25.3334 12.0966 25.3477 12.0554C25.3619 12.0143 25.3932 11.9687 25.4415 11.9188C25.5689 11.7878 25.7307 11.679 25.9268 11.5923C26.1236 11.5021 26.3396 11.4587 26.575 11.4621C26.615 11.4616 26.6703 11.4673 26.7409 11.4792C26.8115 11.4912 26.8851 11.5072 26.9615 11.5274C27.0421 11.5446 27.1133 11.5639 27.175 11.5852C27.2403 11.6071 27.2844 11.6254 27.3073 11.6402C27.4348 11.7234 27.5106 11.8125 27.5345 11.9073C27.5584 12.0021 27.5674 12.078 27.5614 12.1351C27.5578 12.178 27.5559 12.2104 27.5559 12.2321C27.56 12.251 27.5605 12.2692 27.5576 12.2869C27.5552 12.301 27.5404 12.3239 27.5133 12.3556C27.492 12.3738 27.4499 12.3976 27.3869 12.4269C27.3245 12.4526 27.2529 12.4787 27.1722 12.505C27.0951 12.5319 27.0185 12.5553 26.9426 12.5751C26.8672 12.5915 26.806 12.5993 26.7589 12.5986C26.7248 12.6074 26.7042 12.6111 26.6971 12.6099C26.6936 12.6093 26.693 12.602 26.6954 12.5879C26.7095 12.5685 26.714 12.5529 26.7087 12.5411C26.707 12.5299 26.7061 12.5243 26.7061 12.5243C26.6602 12.5166 26.6405 12.4933 26.6471 12.4545C26.6537 12.4157 26.6973 12.3613 26.7781 12.2914C26.8535 12.2316 26.9143 12.1729 26.9603 12.1153C27.0063 12.0577 27.022 12.0186 27.0073 11.998C26.9885 11.9803 26.9533 11.9634 26.9015 11.9474C26.8533 11.932 26.7974 11.919 26.7339 11.9082C26.6739 11.8981 26.6147 11.8936 26.5565 11.8946C26.371 11.9178 26.2168 11.9607 26.0936 12.0234C25.9746 12.0832 25.8909 12.1707 25.8424 12.286C25.8087 12.3347 25.7942 12.3886 25.7988 12.4474C25.8069 12.5069 25.8174 12.5849 25.8301 12.6814C25.8223 12.7708 25.8177 12.8409 25.8164 12.8915C25.8187 12.9427 25.8192 12.9718 25.818 12.9789C25.8156 12.993 25.8138 13.0145 25.8126 13.0433C25.8155 13.0692 25.813 13.116 25.8052 13.1836C25.8081 13.2095 25.8201 13.246 25.8412 13.2932C25.8629 13.3368 25.9031 13.3889 25.9618 13.4497C25.9557 13.5285 25.9568 13.5977 25.9649 13.6571C25.9771 13.7136 25.9809 13.7669 25.976 13.8169C26.0228 13.97 26.0469 14.1175 26.0484 14.2593C26.0505 14.3976 26.0405 14.5103 26.0186 14.5973C26.0001 14.685 25.9786 14.7267 25.9539 14.7226C25.9503 14.722 25.9477 14.727 25.9459 14.7375C25.9441 14.7481 25.945 14.7537 25.9485 14.7543C25.9449 14.7755 25.9251 14.8066 25.8892 14.8478C25.8573 14.886 25.8178 14.9265 25.7706 14.9693C25.7234 15.0122 25.6775 15.048 25.6327 15.0767C25.5873 15.109 25.5517 15.1266 25.5258 15.1295Z" fill="white"></path><path d="M32.0572 26.9432C32.0141 26.9086 31.9925 26.8751 31.9926 26.8424C31.9953 26.8102 32.0232 26.7577 32.0763 26.685C32.1294 26.6123 32.2124 26.4997 32.3253 26.3472C32.4089 26.2388 32.4669 26.1533 32.4993 26.0907C32.5347 26.0259 32.5562 25.9791 32.5638 25.9505C32.5714 25.9218 32.5758 25.9035 32.5771 25.8955C32.5759 25.8708 32.5816 25.8527 32.5945 25.8413C32.6077 25.8272 32.6272 25.8169 32.6528 25.8103C32.6683 25.7993 32.7027 25.7806 32.7562 25.7542C32.8097 25.7279 32.8536 25.6931 32.8882 25.6499C32.9214 25.5983 32.9574 25.5459 32.9964 25.4926C33.038 25.4397 33.0913 25.3738 33.1564 25.2949C33.2219 25.2134 33.309 25.1083 33.4179 24.9797C33.4865 24.896 33.5663 24.8019 33.6575 24.6975C33.7512 24.5935 33.8419 24.4999 33.9295 24.4167C33.9649 24.3845 34.0002 24.3606 34.0356 24.3447C34.0709 24.3289 34.1005 24.323 34.1243 24.327C34.1826 24.3369 34.2381 24.3626 34.291 24.4042C34.3443 24.4431 34.3897 24.4889 34.4271 24.5415C34.4645 24.5941 34.4878 24.6416 34.497 24.684C34.5066 24.7074 34.5043 24.7533 34.4901 24.8217C34.4758 24.8901 34.4564 24.9726 34.4319 25.0692C34.4075 25.1658 34.3806 25.2688 34.3512 25.3782C34.3249 25.4854 34.2913 25.6118 34.2504 25.7573C34.2095 25.9029 34.1675 26.0551 34.1244 26.2139C34.0839 26.3731 34.0469 26.5275 34.0135 26.6771C33.9805 26.824 33.9586 26.9537 33.9478 27.0663C33.9464 27.0905 33.9426 27.113 33.9364 27.1338C33.9302 27.1545 33.926 27.1715 33.9237 27.1847C33.9052 27.1979 33.8696 27.1987 33.8171 27.1871C33.7642 27.1782 33.7139 27.1615 33.6663 27.1372C33.6187 27.1128 33.5942 27.0882 33.593 27.0635C33.5864 27.0542 33.5822 27.0467 33.5804 27.041C33.5787 27.0353 33.5829 27.0101 33.5932 26.9655C33.6039 26.9183 33.6223 26.833 33.6486 26.7094L33.7711 26.1052L33.7188 26.1005C33.6949 26.0965 33.6508 26.0918 33.5864 26.0863C33.5246 26.0813 33.4558 26.0779 33.3798 26.076C33.307 26.0718 33.2393 26.0699 33.1766 26.0702C33.1144 26.0679 33.0707 26.0687 33.0455 26.0726C33.0217 26.0686 32.9899 26.0796 32.9501 26.1055C32.913 26.1319 32.8756 26.1678 32.838 26.2132C32.8212 26.2485 32.7946 26.2848 32.7583 26.3223C32.7251 26.3575 32.7074 26.3818 32.7052 26.395C32.6844 26.4051 32.6659 26.4183 32.6495 26.4346C32.6358 26.4513 32.6289 26.4597 32.6289 26.4597C32.6263 26.4756 32.6076 26.5133 32.5731 26.5728C32.539 26.6297 32.4982 26.6936 32.4509 26.7646C32.4039 26.8329 32.3573 26.8917 32.3108 26.941L32.1781 27.0738L32.0572 26.9432ZM33.2369 25.7374C33.2369 25.7374 33.2519 25.7372 33.2819 25.7368C33.3119 25.7364 33.3472 25.7369 33.3878 25.7383C33.4315 25.7375 33.4693 25.7398 33.501 25.7452C33.5646 25.7396 33.6169 25.7362 33.6579 25.7349C33.7016 25.7341 33.7367 25.736 33.7632 25.7404C33.7901 25.7423 33.8109 25.7485 33.8254 25.7591C33.8338 25.7741 33.8417 25.7836 33.8492 25.7876C33.8593 25.7921 33.8644 25.7943 33.8644 25.7943C33.8679 25.7894 33.8779 25.7625 33.8943 25.7136C33.9108 25.6646 33.9305 25.604 33.9536 25.5316C33.9767 25.4593 34.0003 25.3843 34.0243 25.3067C34.0487 25.2264 34.0707 25.1525 34.0903 25.085C34.1103 25.0149 34.125 24.9602 34.1343 24.9209C34.1455 24.8711 34.1517 24.8258 34.1532 24.7852C34.155 24.742 34.1559 24.7204 34.1559 24.7204C34.1401 24.7177 34.1047 24.7417 34.0499 24.7923C33.9981 24.8408 33.9351 24.9077 33.8608 24.9932C33.7895 25.0765 33.7169 25.1677 33.643 25.2668C33.6081 25.3127 33.5762 25.3481 33.5475 25.3732C33.5214 25.3988 33.5017 25.4104 33.4885 25.4082C33.4823 25.4126 33.4642 25.4313 33.4341 25.4643C33.4071 25.4952 33.3766 25.5309 33.3425 25.5714C33.3115 25.6097 33.2836 25.6459 33.2588 25.6798C33.2372 25.7115 33.2298 25.7307 33.2369 25.7374ZM35.162 27.3243C35.14 27.2934 35.1249 27.2541 35.1166 27.2064C35.1088 27.156 35.102 27.0991 35.0964 27.0355C35.0947 27.0134 35.0961 26.9892 35.1006 26.9627C35.1077 26.9367 35.1113 26.9155 35.1113 26.8992C35.1002 26.9164 35.083 26.938 35.0595 26.9639C35.0387 26.9904 35.0193 27.0089 35.0011 27.0194C34.9888 27.0282 34.9614 27.0454 34.9189 27.0709C34.877 27.0938 34.8359 27.1113 34.7957 27.1236C34.6989 27.1645 34.6164 27.1777 34.548 27.1635C34.4827 27.147 34.4303 27.1028 34.3907 27.0307C34.3542 26.9892 34.3271 26.9397 34.3096 26.8823C34.292 26.8249 34.2975 26.7604 34.3259 26.689C34.3468 26.5972 34.3752 26.5095 34.4112 26.4257C34.4475 26.3392 34.5113 26.2275 34.6025 26.0904C34.6764 25.9913 34.7331 25.9137 34.7725 25.8577C34.8119 25.8017 34.8365 25.7691 34.8462 25.7599C34.8881 25.7534 34.9369 25.7629 34.9924 25.7887C35.0484 25.8117 35.076 25.8422 35.075 25.8802C35.0864 25.9093 35.0779 25.9596 35.0495 26.0311C35.0216 26.0999 34.976 26.1766 34.9127 26.2612C34.8604 26.345 34.8099 26.4263 34.7612 26.5052C34.7152 26.5845 34.6832 26.6527 34.6655 26.7096C34.6503 26.7669 34.6602 26.8053 34.695 26.8248C34.7166 26.8421 34.7512 26.8466 34.7989 26.8383C34.8493 26.8304 34.9129 26.7922 34.9898 26.7235C35.0668 26.6548 35.1555 26.5404 35.256 26.3804C35.2862 26.331 35.3099 26.2874 35.3271 26.2495C35.3449 26.2089 35.3593 26.1637 35.3705 26.1139C35.3705 26.0812 35.3841 26.0494 35.411 26.0186C35.4407 25.9882 35.4729 25.9664 35.5078 25.9533C35.5207 25.9418 35.5372 25.9324 35.5576 25.9249C35.5783 25.9148 35.5902 25.9168 35.5933 25.9309L35.6575 25.9377C35.6685 25.9368 35.6787 25.9494 35.6879 25.9755C35.6971 26.0015 35.7074 26.021 35.7189 26.0338C35.744 26.0625 35.7485 26.1164 35.7324 26.1954C35.7164 26.2743 35.6658 26.3802 35.5808 26.5128C35.5122 26.6129 35.4639 26.6891 35.436 26.7416C35.4108 26.7945 35.3923 26.8472 35.3807 26.8997C35.3727 26.9474 35.3697 26.9891 35.3719 27.0248C35.3745 27.0579 35.3927 27.0951 35.4266 27.1362C35.4526 27.1596 35.4631 27.1941 35.4582 27.2395C35.4563 27.2828 35.4514 27.3201 35.4434 27.3514C35.434 27.3743 35.4102 27.3866 35.3718 27.3883C35.3356 27.3931 35.2968 27.3893 35.2553 27.3768C35.2165 27.3648 35.1854 27.3473 35.162 27.3243ZM35.9745 27.4737C35.9463 27.4635 35.9175 27.4409 35.888 27.406C35.8589 27.3684 35.8329 27.3287 35.8101 27.2867C35.7903 27.2425 35.7787 27.2065 35.7752 27.1787C35.7761 27.1734 35.7733 27.1661 35.7667 27.1568C35.7627 27.148 35.7607 27.1436 35.7607 27.1436C35.7515 27.1338 35.7507 27.0983 35.7583 27.037C35.769 26.9734 35.7848 26.904 35.8057 26.8285C35.8266 26.7531 35.8462 26.6938 35.8644 26.6506C35.8848 26.6104 35.9142 26.5569 35.9528 26.4899C35.9917 26.4202 36.0254 26.3578 36.0538 26.3027L36.1999 26.0905L36.0484 26.02C36.0308 26.0116 36.0167 25.9983 36.0061 25.9802C35.9982 25.9625 35.9951 25.9484 35.9969 25.9378C36.0005 25.9166 36.0176 25.8882 36.0481 25.8525C36.0786 25.8168 36.0992 25.7999 36.1098 25.8017C36.1226 25.8065 36.1462 25.8119 36.1806 25.8177C36.2176 25.8239 36.2536 25.8287 36.2885 25.8318C36.3233 25.835 36.3449 25.8359 36.3533 25.8346C36.3648 25.8311 36.3765 25.8263 36.3884 25.8201C36.4008 25.8113 36.4112 25.7981 36.4196 25.7804C36.4378 25.7536 36.4535 25.7331 36.4668 25.719C36.4801 25.7049 36.4986 25.6835 36.5225 25.6549C36.5469 25.6236 36.5663 25.5969 36.581 25.5749C36.5982 25.5533 36.6237 25.5236 36.6573 25.4857C36.6736 25.4694 36.692 25.4493 36.7124 25.4255C36.7327 25.4017 36.7564 25.3826 36.7833 25.3681C36.8107 25.3509 36.8516 25.3428 36.9058 25.3438C36.9632 25.3426 37.0089 25.3626 37.0428 25.4037C37.0595 25.4338 37.0671 25.4609 37.0658 25.4852C37.0644 25.5095 37.0487 25.5381 37.0186 25.5712C36.9898 25.6126 36.9577 25.6494 36.9224 25.6815C36.8901 25.7115 36.8582 25.7469 36.8268 25.7879C36.7746 25.839 36.7611 25.8708 36.7862 25.8832C36.8113 25.8956 36.8864 25.9028 37.0113 25.9048C37.0903 25.9045 37.1445 25.9219 37.174 25.9568C37.2035 25.9917 37.2171 26.0321 37.2148 26.078C37.212 26.1429 37.1989 26.1802 37.1755 26.1898C37.1521 26.1995 37.0901 26.1958 36.9895 26.1789C36.9242 26.1787 36.8688 26.1762 36.8234 26.1712C36.7783 26.1636 36.7453 26.1581 36.7241 26.1545C36.6892 26.1513 36.6665 26.1488 36.6559 26.1471C36.6453 26.1453 36.629 26.1452 36.6069 26.147C36.5848 26.1487 36.5674 26.1553 36.5546 26.1667C36.5448 26.176 36.5329 26.1903 36.5187 26.2097C36.5063 26.2185 36.4858 26.2436 36.457 26.285C36.4282 26.3264 36.3935 26.3709 36.3528 26.4185C36.2969 26.5235 36.2471 26.6253 36.2032 26.7241C36.1624 26.8207 36.1242 26.9177 36.0887 27.0151C36.0723 27.0641 36.0673 27.1014 36.0739 27.127C36.0836 27.1504 36.1157 27.1695 36.1704 27.1841C36.1991 27.1917 36.2415 27.1989 36.2975 27.2056C36.354 27.2097 36.4017 27.2096 36.4405 27.2052C36.4719 27.1969 36.5046 27.1888 36.5386 27.1809C36.573 27.1704 36.6048 27.1594 36.634 27.148C36.66 27.1388 36.6861 27.1296 36.7121 27.1204C36.7386 27.1085 36.7519 27.1026 36.7519 27.1026C36.7687 27.0837 36.7866 27.0907 36.8055 27.1239C36.8275 27.1548 36.8411 27.1871 36.8463 27.2206C36.841 27.2524 36.8279 27.2897 36.807 27.3324C36.7866 27.3726 36.7301 27.4093 36.6373 27.4427C36.5057 27.4967 36.379 27.5216 36.2571 27.5173C36.1353 27.5131 36.0411 27.4986 35.9745 27.4737ZM38.2933 27.7957C38.2217 27.8163 38.1548 27.8173 38.0927 27.7986C38.0336 27.7777 37.9875 27.7359 37.9545 27.6732C37.9247 27.6082 37.9191 27.5202 37.9379 27.409C37.9428 27.3799 37.9499 27.3457 37.9593 27.3064C37.9717 27.2649 37.987 27.2226 38.0052 27.1794C38.0239 27.1335 38.0451 27.0881 38.0691 27.0431C38.081 27.0206 38.0956 26.9986 38.1129 26.977C38.1328 26.9559 38.1375 26.9444 38.1269 26.9426C38.1163 26.9408 38.1019 26.9452 38.0838 26.9558C38.0683 26.9668 38.056 26.9756 38.0467 26.9822C37.9707 27.0292 37.8995 27.0799 37.8332 27.134C37.77 27.186 37.712 27.2388 37.6594 27.2925C37.6099 27.3441 37.5689 27.393 37.5366 27.4393C37.5069 27.486 37.4892 27.5266 37.4834 27.561C37.4767 27.6007 37.4521 27.6251 37.4098 27.6343C37.3674 27.6435 37.3332 27.6363 37.3072 27.6129C37.2618 27.5753 37.2231 27.5225 37.191 27.4544C37.1616 27.3868 37.1591 27.3047 37.1836 27.2081C37.2125 27.085 37.2419 26.9757 37.2716 26.8799C37.3014 26.7842 37.3405 26.6819 37.3888 26.573C37.4402 26.4619 37.5052 26.3272 37.5836 26.1689C37.6337 26.082 37.6802 26 37.7232 25.9229C37.7666 25.8431 37.8038 25.7759 37.8348 25.7212C37.8685 25.667 37.889 25.6337 37.8966 25.6213C37.912 25.6103 37.9346 25.5815 37.9643 25.5348C37.9944 25.4854 38.0219 25.4356 38.0467 25.3853C38.0742 25.3355 38.0888 25.3053 38.0906 25.2947C38.0941 25.2735 38.1012 25.2557 38.1119 25.2411C38.1251 25.227 38.1369 25.214 38.147 25.2021C38.1692 25.1677 38.1867 25.1448 38.1995 25.1334C38.2154 25.1197 38.2287 25.1138 38.2392 25.1156C38.2525 25.1178 38.2725 25.128 38.2994 25.1462C38.329 25.1648 38.3552 25.1869 38.3781 25.2125C38.4041 25.236 38.4179 25.2587 38.4196 25.2808C38.4319 25.321 38.436 25.3612 38.432 25.4013C38.4284 25.4388 38.4113 25.4836 38.3807 25.5356C38.3501 25.5876 38.3001 25.6582 38.2306 25.7472C38.1744 25.8221 38.1218 25.9003 38.0726 25.9819C38.0234 26.0634 37.9749 26.1492 37.9271 26.2391C37.9071 26.2766 37.881 26.3266 37.8486 26.3892C37.8167 26.4492 37.7844 26.5118 37.7516 26.5771C37.7219 26.6401 37.6959 26.697 37.6738 26.7477C37.6516 26.7984 37.6392 26.8317 37.6365 26.8476C37.6334 26.8661 37.6424 26.8772 37.6636 26.8808C37.6852 26.8817 37.709 26.8694 37.7351 26.8438C37.7493 26.8244 37.7699 26.8075 37.7968 26.793C37.8242 26.7758 37.849 26.7582 37.8711 26.7402C37.8967 26.7173 37.927 26.6911 37.9619 26.6616C38 26.6299 38.0389 26.601 38.0786 26.5751C38.1215 26.5469 38.1593 26.5247 38.192 26.5085C38.2273 26.4926 38.2556 26.4865 38.2768 26.4901C38.3271 26.4986 38.367 26.5203 38.3965 26.5552C38.426 26.5901 38.4475 26.6401 38.461 26.705C38.4676 26.7143 38.4738 26.7262 38.4795 26.7408C38.4857 26.7527 38.4896 26.7615 38.4914 26.7673C38.5028 26.7801 38.5023 26.8236 38.4898 26.8977C38.4777 26.9692 38.4398 27.0649 38.376 27.1848C38.3356 27.2787 38.3088 27.3491 38.2954 27.3958C38.2847 27.443 38.29 27.4684 38.3111 27.472C38.3111 27.472 38.3257 27.4663 38.3549 27.4549C38.3867 27.4439 38.42 27.4318 38.4549 27.4187C38.5402 27.3813 38.5985 27.3748 38.6297 27.3992C38.661 27.4235 38.6742 27.4502 38.6693 27.4793C38.6653 27.5032 38.6513 27.5294 38.6274 27.558C38.6062 27.5871 38.5947 27.607 38.5929 27.6176C38.5929 27.6176 38.5927 27.6189 38.5922 27.6215C38.5922 27.6215 38.5913 27.6268 38.5895 27.6374C38.5886 27.6427 38.5683 27.6583 38.5285 27.6843C38.4887 27.7103 38.445 27.7355 38.3973 27.7602C38.3527 27.7826 38.318 27.7944 38.2933 27.7957ZM39.2286 27.9862C39.1712 27.9875 39.1293 27.9777 39.1028 27.9569C39.0795 27.9339 39.0555 27.9067 39.0308 27.8753C38.9921 27.8469 38.9586 27.8113 38.9304 27.7685C38.9027 27.723 38.8832 27.6775 38.8718 27.632C38.8604 27.5865 38.8581 27.5521 38.8647 27.5287C38.8883 27.4374 38.9265 27.3403 38.9792 27.2376C39.0346 27.1353 39.0988 27.0373 39.1718 26.9434C39.2475 26.85 39.3278 26.7696 39.4126 26.7022C39.5006 26.6327 39.5901 26.5865 39.6811 26.5638C39.7376 26.5515 39.7958 26.5532 39.8558 26.5688C39.9158 26.5843 39.9526 26.6164 39.9662 26.665C39.9929 26.7485 39.9754 26.7959 39.9136 26.8072C39.9057 26.8059 39.8957 26.8083 39.8838 26.8145C39.8723 26.818 39.8657 26.825 39.8639 26.8356C39.8736 26.8427 39.9025 26.8489 39.9506 26.8543C39.9991 26.8571 40.0481 26.8572 40.0975 26.8546C40.1501 26.8499 40.1854 26.8422 40.2035 26.8317C40.2207 26.8264 40.2333 26.8244 40.2413 26.8258C40.2492 26.8271 40.2686 26.8331 40.2995 26.8438C40.3423 26.8646 40.3621 26.8843 40.359 26.9028C40.3572 26.9134 40.3582 26.9313 40.3622 26.9565C40.3665 26.979 40.374 26.9911 40.3846 26.9929C40.4027 26.9987 40.4035 27.0179 40.3871 27.0505C40.3734 27.0836 40.3369 27.1142 40.2777 27.1423C40.222 27.1656 40.1867 27.1814 40.1717 27.1898C40.1597 27.1959 40.1553 27.2142 40.1583 27.2447C40.171 27.2986 40.1594 27.3592 40.1235 27.4267C40.0876 27.4941 40.0354 27.5616 39.9668 27.6289C39.8983 27.6963 39.8198 27.758 39.7314 27.8138C39.6461 27.8675 39.5584 27.9112 39.4683 27.945C39.3813 27.9766 39.3014 27.9904 39.2286 27.9862ZM39.2968 27.6547C39.3074 27.6565 39.3268 27.6543 39.3551 27.6482C39.3838 27.6394 39.4067 27.6324 39.424 27.6272C39.4363 27.6184 39.4516 27.6087 39.4697 27.5981C39.4909 27.5854 39.507 27.5786 39.5181 27.5777C39.5287 27.5795 39.536 27.5766 39.5399 27.5691C39.5444 27.559 39.557 27.5407 39.5778 27.5143C39.599 27.4852 39.6386 27.4442 39.6966 27.3914C39.7593 27.3421 39.8016 27.3016 39.8233 27.2698C39.8454 27.2354 39.8534 27.196 39.8473 27.1514C39.8465 27.1403 39.8397 27.1324 39.8269 27.1275C39.8167 27.123 39.8033 27.114 39.7865 27.1003C39.7601 27.0958 39.7404 27.0993 39.7276 27.1107C39.7179 27.12 39.7004 27.1102 39.6754 27.0815L39.6252 26.9913L39.5463 27.0475C39.4968 27.0827 39.4495 27.1291 39.4044 27.1869C39.3619 27.245 39.3258 27.3056 39.2961 27.3687C39.2664 27.4317 39.2446 27.488 39.2308 27.5374C39.2215 27.5766 39.2236 27.6042 39.2373 27.6201C39.2509 27.6361 39.2708 27.6476 39.2968 27.6547ZM40.4138 28.1577C40.3953 28.1546 40.3724 28.1371 40.3451 28.1053C40.3204 28.0739 40.3073 28.0472 40.3055 28.0251C40.3012 28.0026 40.3063 27.9721 40.321 27.9338C40.3387 27.8932 40.3615 27.8467 40.3894 27.7942C40.4254 27.7104 40.4506 27.6494 40.4653 27.611C40.4799 27.5726 40.4937 27.5395 40.5065 27.5118C40.5194 27.484 40.5371 27.4434 40.5598 27.3901C40.5815 27.3583 40.599 27.3272 40.6123 27.2968C40.6287 27.2642 40.6451 27.2316 40.6615 27.1989C40.6805 27.1668 40.7009 27.1348 40.7226 27.1031C40.7527 27.0374 40.7862 26.9763 40.8229 26.9199C40.8628 26.8613 40.8995 26.813 40.9331 26.7751C40.9397 26.7681 40.9541 26.7555 40.9762 26.7375C40.9983 26.7194 41.0147 26.7113 41.0253 26.7131C41.05 26.6955 41.0803 26.6938 41.116 26.708C41.1521 26.7195 41.1817 26.7381 41.2046 26.7638C41.2305 26.8035 41.2408 26.8475 41.2354 26.8956C41.2331 26.9415 41.2039 27.0019 41.1477 27.0768C41.102 27.1535 41.0606 27.2132 41.0235 27.256C40.9894 27.2965 40.954 27.345 40.9172 27.4014C40.9535 27.364 40.9966 27.3263 41.0466 27.2884C41.0965 27.2506 41.1357 27.2204 41.164 27.198C41.2046 27.1667 41.2413 27.143 41.274 27.1267C41.3098 27.1083 41.3571 27.0863 41.4158 27.0608C41.4662 27.0366 41.5161 27.0151 41.5656 26.9962C41.6177 26.9778 41.676 26.9795 41.7403 27.0012C41.7673 27.0031 41.7928 27.021 41.817 27.055C41.8439 27.0895 41.8612 27.1319 41.8691 27.1822C41.88 27.2304 41.8717 27.2793 41.8443 27.3292C41.7856 27.3057 41.7309 27.2991 41.6801 27.3096C41.6298 27.3175 41.5854 27.3304 41.547 27.3484C41.5112 27.3669 41.4829 27.3812 41.4621 27.3913C41.433 27.4027 41.399 27.4187 41.3601 27.4394C41.3216 27.4574 41.2799 27.4789 41.2348 27.504C41.1902 27.5264 41.1422 27.5524 41.091 27.5818C41.0185 27.6241 40.963 27.6623 40.9246 27.6967C40.8861 27.731 40.8538 27.7691 40.8277 27.811C40.8051 27.848 40.7772 27.8923 40.744 27.9439C40.7108 27.9955 40.6798 28.042 40.651 28.0834C40.6227 28.1222 40.601 28.1458 40.586 28.1541C40.5683 28.1784 40.538 28.1882 40.4952 28.1837C40.4551 28.1797 40.4279 28.171 40.4138 28.1577ZM42.66 28.9453C42.612 28.9072 42.5821 28.8668 42.5702 28.824C42.5584 28.7811 42.5578 28.7361 42.5685 28.6889C42.5819 28.6421 42.5994 28.5947 42.6211 28.5467C42.6566 28.4655 42.691 28.3992 42.7242 28.3476C42.7605 28.2938 42.7957 28.2385 42.8298 28.1816C42.867 28.1226 42.9031 28.0456 42.9382 27.9508C42.9971 27.86 43.0498 27.7736 43.0963 27.6916C43.1454 27.6101 43.184 27.5431 43.2119 27.4906C43.2398 27.4381 43.2538 27.4119 43.2538 27.4119C43.2582 27.4018 43.2735 27.3757 43.2996 27.3339C43.3284 27.2924 43.3627 27.2424 43.4025 27.1838C43.4455 27.123 43.4871 27.0619 43.5274 27.0007C43.5938 26.8812 43.6543 26.7811 43.7087 26.7005C43.7636 26.6172 43.817 26.5431 43.8688 26.4784C43.9232 26.414 43.9803 26.3502 44.04 26.2867C44.0811 26.2365 44.1317 26.211 44.1917 26.2102C44.2518 26.2095 44.3062 26.2255 44.3552 26.2582C44.4045 26.2884 44.4327 26.3312 44.4396 26.3869C44.4484 26.4156 44.4539 26.4478 44.456 26.4835C44.4608 26.5198 44.4613 26.5729 44.4576 26.6431C44.4571 26.7111 44.4474 26.8088 44.4286 26.9363C44.4084 27.0881 44.3876 27.2276 44.3661 27.3546C44.3478 27.4795 44.3336 27.5955 44.3237 27.7028C44.3164 27.8105 44.3173 27.91 44.3264 28.0014C44.3263 28.0504 44.3244 28.1099 44.3207 28.1801C44.3175 28.2476 44.3143 28.3152 44.311 28.3827C44.3104 28.4506 44.3117 28.508 44.3146 28.5548C44.3181 28.599 44.3251 28.6219 44.3357 28.6237C44.3489 28.6259 44.3653 28.6178 44.3847 28.5993C44.4073 28.5786 44.4394 28.5337 44.481 28.4645C44.5226 28.3953 44.5789 28.2877 44.6498 28.1417C44.7208 27.9958 44.8099 27.7985 44.9172 27.5498C44.938 27.507 44.9675 27.4371 45.0057 27.3401C45.0465 27.2435 45.0809 27.1445 45.1089 27.043C45.1386 26.98 45.1695 26.9103 45.2014 26.834C45.2333 26.7577 45.2611 26.6902 45.2846 26.6316C45.3107 26.5734 45.3245 26.5403 45.3258 26.5324C45.329 26.5138 45.3316 26.4979 45.3339 26.4847C45.3388 26.4719 45.341 26.4587 45.3406 26.445C45.3538 26.4472 45.3686 26.432 45.385 26.3994C45.4019 26.3641 45.4125 26.3333 45.417 26.3068C45.4246 26.2618 45.4359 26.2269 45.451 26.2023C45.4691 26.1754 45.4859 26.1564 45.5014 26.1454C45.5395 26.0974 45.581 26.0772 45.626 26.0848C45.6741 26.0902 45.7155 26.1108 45.7503 26.1466C45.7856 26.1798 45.8038 26.2169 45.8051 26.2579C45.8054 26.288 45.7863 26.3528 45.7477 26.4525C45.7122 26.5499 45.6601 26.6814 45.5913 26.8467C45.5864 26.8758 45.5704 26.9222 45.5434 26.9857C45.5163 27.0492 45.4873 27.1164 45.4562 27.1874C45.4278 27.2588 45.4052 27.3204 45.3883 27.372C45.3661 27.439 45.3432 27.5019 45.3197 27.5605C45.2967 27.6165 45.2787 27.6421 45.2659 27.6372C45.1466 27.9247 45.0307 28.1679 44.9182 28.3667C44.8087 28.5633 44.7137 28.7229 44.6331 28.8455C44.545 28.9803 44.4473 29.0591 44.34 29.0819C44.2349 29.1077 44.1492 29.0592 44.0828 28.9363C44.0441 28.859 44.0132 28.7844 43.9899 28.7124C43.9667 28.6404 43.9521 28.5576 43.9461 28.464C43.9401 28.3704 43.9408 28.2535 43.9481 28.1131C43.951 27.9993 43.9548 27.8883 43.9594 27.7801C43.9671 27.6698 43.9777 27.5586 43.9912 27.4465C44.0051 27.3318 44.0241 27.2111 44.0482 27.0845C44.0764 26.9341 44.0847 26.8443 44.0733 26.8151C44.0645 26.7864 44.0422 26.7976 44.0064 26.8487C43.9705 26.8999 43.9273 26.9702 43.8768 27.0597C43.8494 27.1095 43.8166 27.1666 43.7785 27.2309C43.7435 27.2931 43.7072 27.355 43.6695 27.4167C43.6319 27.4784 43.5998 27.5316 43.5732 27.5761C43.5466 27.6206 43.5296 27.649 43.522 27.6614C43.5008 27.6905 43.4751 27.7297 43.445 27.7791C43.4153 27.8258 43.389 27.8772 43.3659 27.9332C43.2286 28.1659 43.1209 28.3683 43.0429 28.5403C42.9679 28.71 42.915 28.8222 42.8839 28.8769C42.845 28.9466 42.8122 28.9873 42.7857 28.9992C42.7618 29.0115 42.72 28.9935 42.66 28.9453ZM45.3822 28.9842C45.3491 28.9867 45.3149 28.9714 45.2797 28.9383C45.2444 28.9051 45.2143 28.866 45.1892 28.8209C45.1642 28.7758 45.1503 28.7367 45.1478 28.7036C45.1465 28.6462 45.1606 28.5792 45.1899 28.5024C45.2223 28.4235 45.2672 28.3426 45.3248 28.2597C45.3828 28.1742 45.4509 28.0932 45.5292 28.0165C45.6079 27.9373 45.693 27.8686 45.7845 27.8105C45.876 27.7524 45.9714 27.7114 46.0708 27.6873C46.1141 27.6728 46.1441 27.6643 46.1609 27.6617C46.1781 27.6564 46.194 27.6591 46.2085 27.6697C46.2235 27.6777 46.2491 27.6956 46.2852 27.7235C46.3205 27.7403 46.3553 27.7598 46.3897 27.782C46.4272 27.8019 46.4571 27.8342 46.4795 27.8788C46.494 27.9221 46.5032 27.9645 46.5071 28.006C46.511 28.0475 46.5126 28.0941 46.5121 28.1457C46.5221 28.2155 46.5227 28.2605 46.5138 28.2808C46.5054 28.2984 46.495 28.3116 46.4826 28.3204C46.4569 28.3433 46.4494 28.3557 46.46 28.3574C46.46 28.3574 46.4578 28.3625 46.4533 28.3727C46.452 28.3806 46.4445 28.3929 46.4308 28.4097C46.4024 28.4648 46.3785 28.5179 46.3589 28.5691C46.3425 28.618 46.3362 28.6633 46.3401 28.7048C46.3515 28.7666 46.3734 28.8057 46.4061 28.8221C46.4413 28.8389 46.493 28.8232 46.5611 28.7747C46.5938 28.7585 46.6291 28.7508 46.6671 28.7518C46.7055 28.7501 46.7229 28.7599 46.7193 28.781C46.7193 28.781 46.7226 28.7857 46.7292 28.795C46.7363 28.8016 46.7451 28.8058 46.7557 28.8076C46.7689 28.8098 46.772 28.824 46.7648 28.85C46.7582 28.8734 46.7482 28.9003 46.7349 28.9307C46.7216 28.9611 46.7065 28.9858 46.6897 29.0047C46.6433 29.0378 46.619 29.0609 46.6167 29.0741C46.6167 29.0741 46.6106 29.0785 46.5982 29.0873C46.5889 29.0939 46.5721 29.1047 46.5478 29.1196C46.4952 29.1407 46.4319 29.145 46.3578 29.1325C46.2863 29.1204 46.2331 29.0965 46.1984 29.0607C46.1636 29.0248 46.1299 28.9824 46.0973 28.9333C46.0674 28.8847 46.0503 28.841 46.046 28.8021L46.0328 28.7591L45.9049 28.8151C45.8709 28.8393 45.8459 28.8582 45.83 28.8719C45.8145 28.8829 45.8006 28.8928 45.7882 28.9016C45.7785 28.9108 45.7677 28.9185 45.7557 28.9247C45.7464 28.9313 45.7365 28.9337 45.7259 28.9319C45.7153 28.9301 45.7061 28.9286 45.6981 28.9272C45.6902 28.9259 45.6862 28.9252 45.6862 28.9252C45.6844 28.9358 45.6634 28.9472 45.6232 28.9595C45.5835 28.9691 45.54 28.9768 45.4928 28.9824C45.4455 28.988 45.4087 28.9886 45.3822 28.9842ZM45.5219 28.6647C45.5378 28.6674 45.5632 28.6621 45.5981 28.6489C45.6361 28.6336 45.6774 28.6147 45.722 28.5923C45.7666 28.5698 45.8073 28.5468 45.8439 28.523C45.8833 28.4997 45.9124 28.4801 45.9315 28.4643C45.9438 28.4555 45.9587 28.4403 45.9759 28.4187C45.9958 28.3975 46.0166 28.3793 46.0383 28.3638C46.1108 28.3053 46.1583 28.2575 46.1809 28.2205C46.2039 28.1808 46.2049 28.1347 46.1838 28.0821C46.1782 28.0512 46.1676 28.0331 46.1522 28.0278C46.1367 28.0224 46.1021 28.0261 46.0482 28.0388C46.0133 28.052 45.9738 28.0766 45.9295 28.1127C45.8853 28.1488 45.8389 28.19 45.7903 28.2362C45.7443 28.2829 45.7007 28.3314 45.6595 28.3816C45.6184 28.4318 45.5834 28.4777 45.5546 28.5191C45.5285 28.561 45.5132 28.5951 45.5087 28.6216C45.507 28.6322 45.508 28.6419 45.512 28.6507C45.5186 28.66 45.5219 28.6647 45.5219 28.6647ZM48.666 29.514C48.6483 29.5055 48.6221 29.4834 48.5873 29.4476C48.5525 29.4118 48.5242 29.3621 48.5022 29.2985C48.483 29.2353 48.4825 29.1576 48.5007 29.0654C48.5168 28.9864 48.5315 28.9317 48.5448 28.9013C48.5612 28.8687 48.5603 28.8495 48.5423 28.8437C48.5295 28.8388 48.501 28.8463 48.4568 28.866C48.4126 28.8858 48.3538 28.9194 48.2805 28.967C48.2071 29.0145 48.1174 29.0783 48.0113 29.1584C47.9751 29.1795 47.9337 29.2066 47.8873 29.2396C47.844 29.2704 47.8009 29.2917 47.7581 29.3035C47.7179 29.3158 47.6855 29.3062 47.6608 29.2749L47.6271 29.2324C47.6113 29.2134 47.599 29.1895 47.5902 29.1608C47.5815 29.1321 47.5813 29.109 47.5897 29.0913L47.7532 28.8004C47.7966 28.7369 47.8262 28.6902 47.8422 28.6602C47.8608 28.6307 47.8694 28.6117 47.8681 28.6033C47.8695 28.5954 47.8633 28.5916 47.8496 28.592C47.8333 28.592 47.8083 28.6027 47.7747 28.6243C47.7416 28.6432 47.7184 28.6597 47.7051 28.6738C47.6945 28.672 47.6782 28.6801 47.6561 28.6982C47.6366 28.7167 47.6176 28.7325 47.599 28.7457C47.5805 28.759 47.5475 28.7847 47.5002 28.823C47.4534 28.8587 47.4034 28.8965 47.3504 28.9366C47.3106 28.9625 47.2637 28.9982 47.2098 29.0435C47.1558 29.0889 47.1081 29.1298 47.0665 29.1664C47.025 29.2029 47.0002 29.2205 46.9923 29.2192C46.9451 29.2085 46.9041 29.1852 46.8693 29.1494C46.8371 29.114 46.818 29.074 46.8119 29.0295C46.801 28.9977 46.8086 28.9445 46.8348 28.87C46.8614 28.7928 46.9078 28.6713 46.9739 28.5054C46.9912 28.4675 47.0063 28.4347 47.0191 28.4069C47.0346 28.3796 47.0501 28.3522 47.0656 28.3249C47.0811 28.2976 47.0986 28.2665 47.1181 28.2317C47.1403 28.1973 47.1677 28.1556 47.2005 28.1067C47.22 28.0719 47.2311 28.0384 47.2338 28.0061C47.237 27.9713 47.239 27.943 47.2399 27.9214C47.2466 27.8817 47.2639 27.8519 47.2917 27.8321C47.3222 27.8128 47.354 27.8018 47.3872 27.7992C47.4207 27.794 47.4463 27.7956 47.4639 27.804C47.5367 27.8245 47.5826 27.8594 47.6014 27.9089C47.6203 27.9584 47.6275 28.0045 47.623 28.0473C47.6189 28.0875 47.6076 28.1223 47.589 28.1519C47.5704 28.1814 47.5554 28.2061 47.5438 28.2259L47.4821 28.3258C47.4453 28.3822 47.4179 28.4238 47.3997 28.4507C47.3846 28.4754 47.3749 28.4928 47.3705 28.503C47.3691 28.5109 47.3678 28.5188 47.3664 28.5268C47.3677 28.5352 47.3803 28.5332 47.4042 28.5209C47.4281 28.5086 47.4568 28.4917 47.4904 28.4701C47.527 28.4464 47.5604 28.4261 47.5905 28.4094C47.6448 28.3777 47.7018 28.3465 47.7615 28.3158C47.8242 28.2828 47.8847 28.2549 47.943 28.232C48.0013 28.2092 48.0486 28.1954 48.0848 28.1906C48.1285 28.2062 48.1657 28.2356 48.1965 28.2789C48.23 28.3227 48.2497 28.3587 48.2559 28.387C48.2624 28.4289 48.2577 28.4649 48.2417 28.4948C48.2284 28.5253 48.2169 28.5533 48.2071 28.5789C48.2027 28.589 48.1941 28.608 48.1812 28.6357C48.1683 28.6635 48.1557 28.69 48.1433 28.7151C48.1313 28.7376 48.1254 28.7488 48.1254 28.7488C48.1254 28.7488 48.1346 28.7422 48.1532 28.729C48.1718 28.7158 48.1961 28.7009 48.2261 28.6842C48.2566 28.6648 48.2867 28.6481 48.3163 28.634C48.4656 28.5558 48.5809 28.5099 48.6621 28.4964C48.7465 28.4807 48.8102 28.5146 48.8533 28.5981C48.8801 28.6326 48.8933 28.6756 48.8927 28.7272C48.8948 28.7793 48.8887 28.8477 48.8744 28.9324C48.8713 28.9673 48.8674 29.0061 48.8629 29.0489C48.8611 29.0922 48.8601 29.1302 48.86 29.1628C48.8626 29.1959 48.8659 29.2169 48.8698 29.2257C48.876 29.2377 48.8888 29.2507 48.9082 29.2649C48.928 29.2764 48.9467 29.2864 48.9644 29.2948C48.9983 29.3196 49.0123 29.3573 49.0065 29.4081C49.0038 29.4566 48.979 29.4906 48.9321 29.5099C48.8884 29.527 48.8436 29.5344 48.7977 29.5321C48.7544 29.5303 48.7105 29.5242 48.666 29.514ZM49.84 29.7285C49.753 29.7601 49.6638 29.7722 49.5725 29.765C49.4842 29.7555 49.4042 29.7298 49.3323 29.6877C49.2609 29.643 49.2065 29.5861 49.1692 29.5172C49.1485 29.4783 49.1325 29.4198 49.1212 29.3417C49.1103 29.2609 49.1238 29.157 49.1616 29.0299C49.198 28.9108 49.2558 28.794 49.3351 28.6794C49.417 28.5653 49.5096 28.4679 49.6131 28.3873C49.7165 28.3068 49.8228 28.258 49.9318 28.241C49.9711 28.2341 50.0098 28.231 50.0477 28.232C50.0888 28.2308 50.1406 28.2382 50.2033 28.2542C50.2628 28.2724 50.3144 28.2974 50.358 28.3293C50.4021 28.3585 50.4325 28.3882 50.4492 28.4182C50.4844 28.4677 50.5053 28.5134 50.5118 28.5554C50.5183 28.5973 50.5172 28.6366 50.5082 28.6732C50.4807 28.7557 50.4269 28.8406 50.3468 28.9278C50.2694 29.0155 50.1711 29.0737 50.0519 29.1026C50.0037 29.1136 49.9488 29.1165 49.887 29.1115C49.8252 29.1066 49.7432 29.0845 49.6408 29.0455C49.5795 29.0215 49.5361 29.021 49.5104 29.0439C49.4874 29.0672 49.4708 29.1175 49.4605 29.1947C49.4577 29.2433 49.4612 29.2874 49.4708 29.3272C49.4835 29.3647 49.5126 29.3941 49.558 29.4154C49.6171 29.4363 49.6605 29.445 49.6884 29.4415C49.7166 29.4354 49.7522 29.4264 49.795 29.4146C49.8184 29.4049 49.8407 29.3937 49.8619 29.3809C49.8858 29.3686 49.9083 29.3561 49.9295 29.3433C49.9534 29.331 49.9726 29.322 49.9872 29.3163C50.0022 29.308 50.0166 29.3036 50.0303 29.3032C50.0439 29.3028 50.0574 29.3037 50.0706 29.3059C50.0993 29.3135 50.1244 29.334 50.146 29.3676C50.1675 29.4012 50.1801 29.4319 50.1835 29.4597C50.18 29.4809 50.1616 29.5091 50.1284 29.5444C50.0957 29.577 50.0532 29.6106 50.0011 29.6454C49.952 29.678 49.8983 29.7056 49.84 29.7285ZM49.9379 28.8342C49.9578 28.8294 49.9874 28.8154 50.0267 28.7921C50.0687 28.7692 50.1069 28.7443 50.1414 28.7175C50.1763 28.688 50.1953 28.664 50.1985 28.6454C50.2034 28.6163 50.1878 28.5878 50.1516 28.5599C50.1182 28.5325 50.0698 28.5203 50.0067 28.5232C49.9847 28.5249 49.957 28.5353 49.9239 28.5542C49.8908 28.5731 49.857 28.596 49.8225 28.6228C49.7884 28.647 49.7584 28.6719 49.7323 28.6974C49.7066 28.7203 49.6885 28.7391 49.6779 28.7536C49.6862 28.7686 49.7056 28.7828 49.736 28.7961C49.7665 28.8094 49.8002 28.8192 49.8373 28.8254C49.877 28.8321 49.9105 28.8351 49.9379 28.8342Z" fill="white"></path><path d="M5.81058 35.339C5.74874 35.3135 5.69914 35.2913 5.66176 35.2724C5.62395 35.257 5.60504 35.2493 5.60504 35.2493C5.61429 35.2324 5.61266 35.216 5.60016 35.2001C5.59121 35.1846 5.5674 35.1727 5.52874 35.1644C5.47971 35.1225 5.43062 35.0661 5.38146 34.9952C5.3323 34.9244 5.29047 34.8527 5.25595 34.78C5.22144 34.7074 5.199 34.6542 5.18864 34.6205C5.17018 34.5642 5.17581 34.5324 5.20553 34.5252C5.23567 34.5144 5.27136 34.5024 5.31259 34.4894C5.35511 34.4657 5.39855 34.4493 5.44291 34.4402C5.49082 34.4315 5.52536 34.4591 5.54651 34.523C5.58287 34.6103 5.6456 34.6881 5.73471 34.7566C5.82737 34.8254 5.93525 34.8727 6.05835 34.8983C6.18501 34.9244 6.31552 34.9185 6.44989 34.8806C6.53989 34.8517 6.59251 34.804 6.60775 34.7373C6.62342 34.6671 6.60662 34.5822 6.55733 34.4825C6.55009 34.4528 6.53688 34.4277 6.5177 34.4074C6.50207 34.3875 6.47642 34.361 6.44075 34.3278C6.40864 34.2951 6.36267 34.2427 6.30285 34.1706C6.25254 34.1393 6.20556 34.1102 6.16193 34.0833C6.12185 34.0569 6.07843 34.0282 6.03167 33.9973C5.97823 33.962 5.91897 33.9152 5.85389 33.8569C5.78923 33.795 5.73033 33.7303 5.67719 33.6626C5.62448 33.5913 5.58555 33.5253 5.56042 33.4646C5.50998 33.4045 5.48321 33.3273 5.48013 33.2332C5.47747 33.1355 5.49145 33.0345 5.52206 32.93C5.55622 32.8259 5.60155 32.7341 5.65802 32.6543C5.68534 32.6071 5.73214 32.5479 5.79842 32.4765C5.86513 32.4016 5.93916 32.3258 6.02051 32.2491C6.10186 32.1724 6.17859 32.1041 6.2507 32.0443C6.32678 31.9813 6.38587 31.9398 6.42796 31.9196C6.45982 31.8946 6.49345 31.8698 6.52886 31.8452C6.5647 31.8171 6.58262 31.803 6.58262 31.803C6.58832 31.7857 6.59472 31.7774 6.60182 31.7783C6.61249 31.7796 6.61782 31.7802 6.61782 31.7802C6.63687 31.7717 6.6781 31.7586 6.74152 31.741C6.80493 31.7234 6.87625 31.6852 6.95546 31.6262C7.20727 31.5411 7.41905 31.4891 7.5908 31.4702C7.76297 31.4476 7.89703 31.4421 7.99299 31.4537C8.08141 31.468 8.16549 31.5033 8.24522 31.5598C8.32537 31.6127 8.3916 31.6766 8.44388 31.7514C8.49972 31.8266 8.52783 31.9075 8.52822 31.9941C8.54282 32.0824 8.51797 32.184 8.45366 32.2988C8.39333 32.4105 8.3141 32.5145 8.21596 32.6109C8.1218 32.7041 8.0273 32.7702 7.93246 32.8093C7.82782 32.84 7.74188 32.835 7.67465 32.7945C7.61098 32.7544 7.58499 32.7007 7.59667 32.6336C7.6001 32.6052 7.61305 32.5725 7.63553 32.5356C7.66156 32.499 7.725 32.4364 7.82583 32.3476C7.95968 32.1942 8.03444 32.0825 8.05011 32.0122C8.06577 31.942 8.03871 31.8973 7.96892 31.8781C7.94845 31.8684 7.90737 31.8652 7.84566 31.8686C7.78396 31.872 7.7165 31.8783 7.64328 31.8875C7.57404 31.8936 7.5117 31.9023 7.45625 31.9137C7.40436 31.9254 7.37798 31.9349 7.37712 31.942C7.37712 31.942 7.37648 31.9473 7.3752 31.958C7.37391 31.9686 7.36638 31.9713 7.35259 31.9661C7.34548 31.9652 7.31911 31.9747 7.27346 31.9944C7.2318 32.011 7.1804 32.0337 7.11925 32.0624C7.05811 32.091 6.99675 32.1215 6.93518 32.1538C6.87759 32.1829 6.82753 32.2093 6.78502 32.233C6.7425 32.2567 6.71903 32.2719 6.71462 32.2786C6.70281 32.3169 6.65765 32.3475 6.57917 32.3705C6.50295 32.4046 6.43348 32.4575 6.37075 32.5292C6.30803 32.601 6.23385 32.693 6.14821 32.8053C6.07795 32.8798 6.0246 32.9635 5.98816 33.0564C5.95216 33.1458 5.94317 33.2205 5.96119 33.2803C5.97211 33.3393 6.01324 33.402 6.08458 33.4683C6.1599 33.5314 6.26194 33.6122 6.3907 33.7107C6.5034 33.7927 6.60856 33.8775 6.70619 33.965C6.80382 34.0525 6.88567 34.1362 6.95174 34.2163C7.01824 34.2928 7.05937 34.3555 7.07513 34.4042C7.1105 34.4698 7.12703 34.5421 7.12472 34.6211C7.12597 34.7006 7.11676 34.777 7.09711 34.8504C7.08144 34.9206 7.06371 34.9779 7.04393 35.0224C7.01221 35.0763 6.96584 35.132 6.90482 35.1896C6.84736 35.2475 6.79752 35.2722 6.7553 35.2635C6.71492 35.2694 6.68322 35.2782 6.66018 35.2899C6.6407 35.302 6.61788 35.3118 6.59171 35.3195C6.56512 35.3307 6.50456 35.3396 6.41001 35.3463C6.31504 35.3565 6.21183 35.3603 6.10037 35.3577C5.98849 35.3586 5.89189 35.3524 5.81058 35.339ZM8.71489 35.6131C8.65759 35.6098 8.57628 35.5964 8.47095 35.5729C8.36917 35.5498 8.2622 35.5099 8.15006 35.4531C8.04147 35.3968 7.9459 35.3222 7.86334 35.2293C7.78477 35.1333 7.73983 35.0125 7.72852 34.8669C7.70984 34.6628 7.72707 34.4449 7.7802 34.2133C7.83333 33.9818 7.90381 33.7559 7.99162 33.5357C8.0171 33.4739 8.0607 33.3962 8.12245 33.3027C8.18462 33.2056 8.25653 33.1025 8.33818 32.9934C8.42338 32.8847 8.50994 32.7797 8.59784 32.6785C8.68617 32.5738 8.76725 32.4844 8.84107 32.4104C8.89369 32.3626 8.95961 32.3093 9.03882 32.2503C9.12201 32.1882 9.20656 32.1299 9.29245 32.0753C9.38232 32.0177 9.46203 31.9696 9.53157 31.9311C9.60508 31.8895 9.6567 31.865 9.68642 31.8578C9.73519 31.842 9.78289 31.8352 9.82952 31.8372C9.87657 31.8356 9.93102 31.8476 9.99285 31.8731C10.0422 31.8826 10.0933 31.9068 10.1464 31.9456C10.1998 31.9809 10.2457 32.0189 10.2841 32.0596C10.3224 32.1003 10.3415 32.1368 10.3412 32.1692C10.3422 32.191 10.3815 32.1939 10.4591 32.178C10.4874 32.1526 10.5273 32.1357 10.5787 32.1275C10.6306 32.1157 10.6779 32.1124 10.7206 32.1176C10.7636 32.1191 10.7854 32.1326 10.786 32.1579C10.7608 32.1873 10.761 32.2162 10.7864 32.2445C10.7975 32.2422 10.7963 32.2673 10.7827 32.3197C10.7692 32.3722 10.7493 32.4329 10.7229 32.5018C10.697 32.5672 10.6693 32.618 10.6397 32.6541C10.6397 32.6541 10.6351 32.6625 10.6258 32.6794C10.6201 32.6968 10.6173 32.7054 10.6173 32.7054C10.6223 32.7241 10.6166 32.7414 10.6002 32.7575C10.5839 32.7735 10.5695 32.788 10.5571 32.801C10.5443 32.8174 10.5256 32.853 10.501 32.9078C10.4803 32.9594 10.4569 33.0196 10.4305 33.0886C10.4082 33.1544 10.3883 33.2151 10.3707 33.2707C10.3537 33.3227 10.344 33.3576 10.3419 33.3753C10.346 33.4011 10.3123 33.4114 10.2408 33.4064C10.1733 33.3983 10.1106 33.3799 10.0528 33.3513C9.97799 33.3135 9.93273 33.2702 9.91697 33.2214C9.90477 33.1731 9.92634 33.0837 9.9817 32.9534C10.0512 32.7959 10.0941 32.6785 10.1107 32.6012C10.1272 32.5238 10.1129 32.4626 10.0679 32.4175C10.054 32.3834 10.0172 32.3591 9.95767 32.3448C9.89853 32.3268 9.84792 32.3279 9.80583 32.3481C9.74995 32.363 9.6711 32.404 9.56928 32.471C9.46789 32.5345 9.36123 32.6118 9.24931 32.7029C9.13738 32.794 9.03569 32.8899 8.94423 32.9907C8.75335 33.1984 8.60157 33.4109 8.48887 33.6281C8.37618 33.8453 8.30188 34.058 8.26596 34.2664C8.23004 34.4748 8.23116 34.6751 8.26932 34.8672C8.27471 34.8822 8.2924 34.915 8.32237 34.9655C8.35235 35.016 8.37714 35.0496 8.39675 35.0664C8.50393 35.1045 8.66186 35.1254 8.87056 35.1289C9.0268 35.1189 9.14389 35.0897 9.22182 35.0414C9.3033 34.9935 9.3838 34.9239 9.46331 34.8325C9.50925 34.7804 9.55468 34.7624 9.5996 34.7786C9.64495 34.7913 9.68239 34.8246 9.71194 34.8787C9.74191 34.9292 9.7566 34.9868 9.756 35.0516C9.75386 35.0694 9.73338 35.1048 9.69454 35.1578C9.65969 35.2077 9.61972 35.2552 9.57463 35.3002C9.5331 35.3457 9.50124 35.3707 9.47906 35.3752C9.46442 35.3771 9.45511 35.3796 9.45112 35.3827C9.4507 35.3862 9.45119 35.3971 9.4526 35.4153C9.45089 35.4295 9.42522 35.4481 9.37559 35.4709C9.32597 35.4938 9.2639 35.5152 9.1894 35.535C9.11447 35.5585 9.03485 35.5759 8.95054 35.5874C8.8658 35.6024 8.78725 35.611 8.71489 35.6131ZM10.6309 35.7898C10.6107 35.7477 10.5711 35.7177 10.512 35.6998C10.4528 35.6818 10.3606 35.6689 10.2354 35.661C10.1848 35.6621 10.1337 35.6524 10.0821 35.6318C10.0305 35.6111 9.9904 35.5847 9.96184 35.5524C9.93328 35.5201 9.92426 35.4902 9.93479 35.4626C9.94348 35.4204 9.99881 35.3802 10.1008 35.342C10.2027 35.3038 10.3303 35.2921 10.4836 35.3069L10.7081 35.3286L10.7742 35.2284C10.7932 35.191 10.809 35.1496 10.8216 35.1043C10.8379 35.0594 10.8633 34.9975 10.8981 34.9188C10.9183 34.8708 10.9479 34.804 10.9871 34.7186C11.0262 34.6332 11.0678 34.5426 11.1117 34.447C11.1561 34.3478 11.1957 34.2588 11.2304 34.18C11.2651 34.1013 11.288 34.0464 11.299 34.0152C11.317 33.985 11.343 33.934 11.3769 33.8624C11.4112 33.7872 11.4437 33.7118 11.4744 33.6362C11.5091 33.5574 11.5322 33.5007 11.5436 33.466C11.6698 33.1964 11.7538 33.0082 11.7955 32.9014C11.8376 32.7911 11.8518 32.7334 11.838 32.7281C11.8238 32.7264 11.7898 32.7241 11.736 32.7212C11.6823 32.7184 11.623 32.7166 11.5582 32.716C11.4938 32.7119 11.4363 32.7104 11.3857 32.7115C11.3351 32.7126 11.304 32.716 11.2925 32.7219C11.2717 32.7446 11.2419 32.7374 11.2032 32.7003C11.1648 32.6596 11.1424 32.6209 11.136 32.584C11.1363 32.5516 11.14 32.5214 11.1469 32.4934C11.1539 32.4654 11.1669 32.4472 11.186 32.4386C11.2134 32.4203 11.2678 32.4034 11.3489 32.388C11.4306 32.3689 11.5206 32.3545 11.6191 32.3448C11.7212 32.3354 11.8138 32.3304 11.8968 32.3296C11.9581 32.3297 12.02 32.3246 12.0825 32.3141C12.1455 32.3 12.1965 32.2809 12.2355 32.2568C12.2687 32.25 12.3 32.2447 12.3293 32.241C12.3622 32.2378 12.3944 32.2399 12.4259 32.2473C12.4522 32.2685 12.4991 32.2831 12.5666 32.2913C12.6377 32.2998 12.7126 32.307 12.7912 32.3129C12.9923 32.3191 13.1301 32.3429 13.2044 32.3843C13.2827 32.4226 13.3313 32.4681 13.3502 32.5208C13.3599 32.5905 13.3495 32.6469 13.319 32.6901C13.289 32.7298 13.244 32.7442 13.184 32.7334C13.1512 32.7366 13.1059 32.7384 13.0482 32.7386C12.9909 32.7354 12.9158 32.7299 12.823 32.7223C12.5858 32.7154 12.4567 32.7251 12.4355 32.7514C12.4196 32.7639 12.4054 32.7766 12.393 32.7895C12.3842 32.8029 12.3716 32.8176 12.3553 32.8337C12.3571 32.8483 12.3431 32.8899 12.3132 32.9584C12.2873 33.0238 12.2554 33.0939 12.2176 33.1686C12.1978 33.2131 12.1686 33.2763 12.1298 33.3582C12.0911 33.44 12.0502 33.5252 12.0071 33.6138C11.968 33.6992 11.9315 33.7777 11.8976 33.8494C11.8642 33.9175 11.8406 33.9633 11.827 33.9869C11.8089 34.0172 11.7922 34.0512 11.7768 34.089C11.7654 34.1237 11.7569 34.1497 11.7512 34.1671C11.6805 34.3352 11.6203 34.4758 11.5706 34.5888C11.5245 34.7022 11.4836 34.8018 11.4481 34.8877C11.4129 34.97 11.3797 35.0507 11.3486 35.1299C11.3178 35.2055 11.2822 35.2914 11.2418 35.3875C11.2418 35.3875 11.2723 35.3893 11.3331 35.393C11.3944 35.3932 11.4716 35.3953 11.5649 35.3993C11.7341 35.4017 11.8491 35.4047 11.9099 35.4084C11.9708 35.4122 12.0057 35.4218 12.0146 35.4373C12.024 35.4492 12.0321 35.4718 12.0389 35.5051C12.0984 35.6096 12.0835 35.6889 11.994 35.7431C11.9081 35.7976 11.7659 35.8111 11.5673 35.7836C11.3816 35.7685 11.2442 35.7573 11.1549 35.7502C11.0687 35.747 11.0126 35.7492 10.9864 35.7569C10.9602 35.7646 10.9457 35.7808 10.9427 35.8057C10.9394 35.863 10.8998 35.8925 10.8238 35.8942C10.7511 35.8998 10.6867 35.865 10.6309 35.7898ZM13.5167 36.1861C13.3745 36.169 13.2477 36.1447 13.1361 36.1132C13.0276 36.0857 12.9315 36.0309 12.8476 35.9486C12.7473 35.8536 12.6832 35.7269 12.6554 35.5686C12.6316 35.407 12.6687 35.2042 12.7666 34.96C12.7951 34.8733 12.824 34.7974 12.8535 34.7325C12.8865 34.668 12.9119 34.6368 12.9297 34.6389C12.9354 34.6216 12.9437 34.5973 12.9547 34.5662C12.966 34.5315 12.9781 34.4915 12.9908 34.4462C13.0162 34.3843 13.0342 34.3396 13.0448 34.312C13.0557 34.2809 13.0731 34.256 13.097 34.2372C13.1086 34.2314 13.1238 34.2098 13.1427 34.1724C13.1621 34.1315 13.1739 34.1077 13.1784 34.101C13.1784 34.101 13.1816 34.0888 13.1882 34.0643C13.1952 34.0363 13.2079 34.0054 13.2264 33.9716C13.2904 33.8891 13.3241 33.8337 13.3275 33.8053C13.3364 33.7919 13.3531 33.7723 13.3779 33.7464C13.4062 33.721 13.4302 33.6861 13.45 33.6416C13.5793 33.466 13.685 33.3219 13.7671 33.2092C13.8496 33.093 13.902 33.0019 13.9244 32.9361C13.9469 32.8992 13.9684 32.8549 13.9891 32.8033C14.0137 32.7486 14.0401 32.7085 14.0684 32.6831C14.0635 32.6644 14.0854 32.6473 14.1341 32.6315C14.1865 32.6162 14.2532 32.6008 14.3344 32.5853C14.4156 32.5698 14.5017 32.5586 14.5927 32.5515C14.6837 32.5445 14.7667 32.5436 14.8417 32.5491C14.8648 32.5374 14.9123 32.5323 14.9842 32.5338C15.0597 32.5357 15.1454 32.5424 15.2414 32.5539C15.3373 32.5655 15.4257 32.5798 15.5066 32.5967C15.5848 32.6061 15.6457 32.6243 15.6894 32.6512C15.733 32.6781 15.7766 32.7049 15.8203 32.7318C15.8359 32.7517 15.8578 32.7796 15.8859 32.8155C15.914 32.8513 15.9295 32.8874 15.9323 32.9238C15.9387 32.9606 15.9118 32.9898 15.8515 33.0114C15.8395 33.0208 15.7798 33.0226 15.6724 33.0169C15.5649 33.0111 15.4525 33.0012 15.3352 32.9871C15.2037 32.9713 15.0887 32.9682 14.9902 32.978C14.8917 32.9877 14.8229 32.9903 14.7838 32.9856C14.7323 32.9938 14.6726 32.9956 14.6046 32.991C14.5367 32.9864 14.5027 32.9842 14.5027 32.9842C14.4956 32.9833 14.4753 33.0025 14.4417 33.0417C14.4085 33.0774 14.3708 33.1215 14.3284 33.1741C14.29 33.2235 14.2538 33.2697 14.2198 33.3124C14.1893 33.3556 14.1735 33.3826 14.1722 33.3932C14.1679 33.4288 14.149 33.4662 14.1154 33.5054C14.0818 33.5446 14.0421 33.5903 13.9962 33.6424C13.955 33.6844 13.926 33.7313 13.9089 33.7834C13.8922 33.8318 13.899 33.8651 13.9293 33.8832C13.9874 33.8794 14.0669 33.8781 14.1677 33.8794C14.2721 33.8812 14.3744 33.8845 14.4748 33.8894C14.5756 33.8907 14.6526 33.8946 14.7059 33.901C14.7685 33.8905 14.8187 33.893 14.8565 33.9083C14.8943 33.9237 14.9214 33.9378 14.9379 33.9506C14.9797 33.9628 15.002 33.9871 15.0049 34.0235C15.0112 34.0604 15.007 34.0959 14.992 34.1302C14.9771 34.1644 14.9565 34.1854 14.9304 34.193C14.9065 34.2118 14.8502 34.2303 14.7614 34.2484C14.6727 34.2666 14.568 34.2828 14.4473 34.2971C14.3302 34.3118 14.2114 34.3246 14.0912 34.3353C13.9749 34.343 13.8732 34.3487 13.7862 34.3527C13.7028 34.3571 13.6541 34.3566 13.6403 34.3513C13.625 34.299 13.5999 34.2978 13.5651 34.3477C13.5342 34.3944 13.4916 34.4939 13.4372 34.646C13.3874 34.7301 13.3491 34.794 13.3222 34.8376C13.2993 34.8781 13.2793 34.9244 13.2622 34.9764C13.2455 35.0249 13.2199 35.1029 13.1853 35.2105C13.1489 35.3035 13.1402 35.3908 13.1592 35.4724C13.1822 35.5509 13.2473 35.6236 13.3546 35.6906C13.424 35.7134 13.5051 35.7286 13.5979 35.7362C13.6908 35.7437 13.8159 35.7372 13.9735 35.7165C14.0422 35.6851 14.1104 35.6573 14.1782 35.633C14.2465 35.6052 14.2939 35.5856 14.3205 35.5744C14.3383 35.5766 14.3658 35.5727 14.403 35.5627C14.4443 35.5497 14.472 35.544 14.4862 35.5457C14.5193 35.51 14.5572 35.4948 14.5999 35.4999C14.607 35.5008 14.6246 35.5191 14.6527 35.5549C14.6844 35.5912 14.7133 35.6361 14.7393 35.6898C14.7653 35.7434 14.775 35.7968 14.7686 35.8501C14.7643 35.8857 14.6984 35.9246 14.5707 35.9669C14.4465 36.0096 14.2913 36.0558 14.1051 36.1055C14.0115 36.1339 13.935 36.1553 13.8756 36.1698C13.8197 36.1847 13.7665 36.1927 13.7159 36.1938C13.6648 36.1985 13.5984 36.1959 13.5167 36.1861ZM15.4321 36.1626C15.4071 36.1307 15.3891 36.0853 15.3782 36.0263C15.3709 35.9677 15.371 35.9065 15.3787 35.8425C15.3904 35.7754 15.4095 35.7218 15.436 35.6817C15.4576 35.6519 15.4767 35.6127 15.4934 35.5643C15.5105 35.5122 15.5236 35.4633 15.5327 35.4176C15.5748 35.3073 15.6227 35.194 15.6763 35.0779C15.734 34.9587 15.7944 34.8307 15.8578 34.6941C15.9453 34.5064 16.0209 34.3424 16.0847 34.2023C16.1484 34.0621 16.2113 33.9291 16.2734 33.8032C16.3358 33.6737 16.4063 33.5379 16.4847 33.396C16.4975 33.3795 16.5107 33.3594 16.5244 33.3358C16.542 33.3091 16.5561 33.282 16.5666 33.2544C16.5811 33.2237 16.5879 33.1975 16.5869 33.1757C16.6044 33.1201 16.6242 33.0756 16.6463 33.0423C16.6723 33.0057 16.6933 32.9812 16.7092 32.9687C16.7539 32.9272 16.801 32.895 16.8506 32.8722C16.9007 32.8457 16.9391 32.8414 16.9658 32.859C17.0138 32.8792 17.0641 32.9105 17.1167 32.9529C17.1733 32.9922 17.2149 33.0657 17.2416 33.1735C17.2591 33.208 17.2745 33.2441 17.288 33.2818C17.3019 33.3159 17.3099 33.3547 17.3119 33.3982C17.3138 33.4417 17.3056 33.4948 17.2873 33.5575C17.2791 33.7152 17.2794 33.8775 17.2881 34.0444C17.3004 34.2117 17.2949 34.3625 17.2715 34.4967C17.2642 34.5571 17.2546 34.6371 17.2426 34.7366C17.2306 34.8361 17.2182 34.9391 17.2053 35.0458C17.1965 35.1493 17.1909 35.2405 17.1886 35.3196C17.1903 35.3955 17.2009 35.4418 17.2205 35.4586C17.2272 35.463 17.2297 35.4723 17.228 35.4866C17.2267 35.4972 17.2278 35.5028 17.2314 35.5032C17.2349 35.5036 17.242 35.49 17.2525 35.4625C17.267 35.4318 17.2896 35.3786 17.3204 35.303C17.3503 35.2345 17.3926 35.1675 17.4474 35.102C17.5061 35.0333 17.5556 34.9365 17.5959 34.8116C17.6562 34.6999 17.706 34.6013 17.7451 34.5159C17.7878 34.4309 17.8289 34.3439 17.8685 34.2549C17.908 34.1659 17.9542 34.0669 18.007 33.9579C18.018 33.9268 18.0351 33.8892 18.0585 33.8451C18.0858 33.7979 18.1151 33.7492 18.1464 33.6989C18.1781 33.645 18.211 33.5967 18.245 33.5539C18.2891 33.4871 18.3369 33.419 18.3886 33.3495C18.4402 33.28 18.4669 33.2381 18.4686 33.2239C18.4686 33.2239 18.4697 33.215 18.4718 33.1972C18.4744 33.1759 18.4836 33.159 18.4995 33.1465C18.519 33.1344 18.5441 33.1212 18.5746 33.1069C18.6052 33.0925 18.6286 33.0629 18.6448 33.018C18.6643 33.0059 18.7004 32.9904 18.7532 32.9715C18.8059 32.9527 18.8474 32.9522 18.8777 32.9703C18.8969 32.9907 18.9159 33.0128 18.9346 33.0367C18.9569 33.061 18.9693 33.0931 18.9717 33.1331C18.9776 33.1734 18.9619 33.2292 18.9245 33.3004C18.9048 33.3738 18.8811 33.4358 18.8534 33.4866C18.8296 33.5342 18.8071 33.5711 18.786 33.5974C18.7675 33.6313 18.7463 33.672 18.7226 33.7196C18.7028 33.7641 18.6817 33.8048 18.6592 33.8418C18.6373 33.904 18.6186 33.9541 18.6032 33.9919C18.5914 34.0301 18.5847 34.0563 18.5829 34.0705C18.5829 34.0705 18.5684 34.0868 18.5392 34.1194C18.5136 34.1523 18.4816 34.1935 18.4432 34.243C18.378 34.365 18.3259 34.4686 18.2867 34.5541C18.248 34.6359 18.2142 34.7076 18.1851 34.769C18.1561 34.8304 18.1269 34.8936 18.0974 34.9585C18.0684 35.0199 18.031 35.0911 17.9851 35.1721C17.9756 35.2215 17.9611 35.2666 17.9418 35.3075C17.9229 35.3449 17.9028 35.3767 17.8816 35.403C17.8604 35.4293 17.8434 35.4507 17.8306 35.4672C17.8182 35.4801 17.8121 35.4866 17.8121 35.4866C17.7052 35.6252 17.6119 35.7563 17.5321 35.8801C17.4527 36.0004 17.4002 36.077 17.3746 36.1099C17.3534 36.1362 17.3329 36.1572 17.313 36.1728C17.2935 36.1849 17.2744 36.1934 17.2558 36.1984C17.2412 36.2002 17.2247 36.2019 17.2065 36.2033C17.1919 36.2051 17.1739 36.2048 17.1526 36.2022C17.0878 36.2016 17.0315 36.175 16.9837 36.1224C16.9364 36.0662 16.8943 35.9818 16.8574 35.8692C16.8093 35.73 16.7725 35.5561 16.7472 35.3475C16.7258 35.1358 16.7252 34.9158 16.7455 34.6875C16.749 34.6591 16.7528 34.6271 16.7571 34.5916C16.7614 34.556 16.7639 34.5203 16.7646 34.4843C16.7689 34.4488 16.7707 34.4183 16.7702 34.393C16.7736 34.3646 16.7822 34.2935 16.7959 34.1798C16.8096 34.0661 16.8227 33.927 16.8353 33.7627C16.7775 33.8531 16.7228 33.9637 16.6709 34.0944C16.6191 34.2252 16.5656 34.3558 16.5102 34.4861C16.4553 34.6129 16.3896 34.724 16.3132 34.8193C16.2975 34.8895 16.2792 34.9522 16.2581 35.0074C16.237 35.0625 16.2168 35.1106 16.1975 35.1515C16.1821 35.1893 16.1663 35.2162 16.1499 35.2323C16.1165 35.3004 16.0851 35.3813 16.0557 35.4752C16.03 35.5694 16.0072 35.6388 15.9874 35.6833C15.9831 35.7188 15.9663 35.769 15.9368 35.834C15.9113 35.8958 15.8839 35.9592 15.8544 36.0242C15.8254 36.0856 15.8034 36.1334 15.7884 36.1677C15.7655 36.2082 15.7295 36.2381 15.6803 36.2574C15.6311 36.2767 15.582 36.2798 15.5331 36.2667C15.4842 36.2536 15.4506 36.2189 15.4321 36.1626ZM18.9911 36.932C18.9403 36.9043 18.8818 36.8666 18.8154 36.8189C18.7486 36.7748 18.6869 36.7187 18.6302 36.6506C18.5735 36.5825 18.5325 36.5036 18.5072 36.414C18.4841 36.3067 18.4714 36.2024 18.4692 36.1012C18.4705 36.0004 18.4809 35.8844 18.5003 35.7534C18.5225 35.5686 18.5542 35.4101 18.5954 35.2781C18.6405 35.1429 18.7001 35.0077 18.7741 34.8724C18.7824 34.8626 18.7985 34.8338 18.8223 34.7862C18.85 34.7355 18.88 34.6814 18.9121 34.624C18.9478 34.567 18.9747 34.5234 18.9928 34.4931C19.0285 34.4361 19.0808 34.3613 19.1496 34.2686C19.2225 34.1728 19.2984 34.081 19.3775 33.9932C19.499 33.8528 19.601 33.7389 19.6837 33.6515C19.7667 33.5605 19.8443 33.4852 19.9164 33.4253C19.9921 33.3659 20.0729 33.309 20.1588 33.2544C20.2482 33.2003 20.3583 33.1396 20.489 33.0725C20.574 33.025 20.6778 33.0015 20.8003 33.0018C20.9264 33.0026 21.0449 33.0367 21.1558 33.1041C21.2671 33.168 21.3426 33.2744 21.3823 33.4234C21.4124 33.5028 21.4188 33.5991 21.4016 33.7124C21.3848 33.8221 21.3491 33.9386 21.2946 34.0619C21.2405 34.1815 21.1766 34.2928 21.1029 34.3957C21.0293 34.4986 20.951 34.5793 20.8683 34.6379C20.8169 34.6749 20.7539 34.6746 20.6791 34.6367C20.6079 34.5993 20.5502 34.5545 20.506 34.5023C20.4813 34.438 20.4678 34.4003 20.4655 34.3893C20.4668 34.3786 20.4748 34.3723 20.4894 34.3705C20.5138 34.3482 20.5473 34.309 20.5901 34.2528C20.633 34.1967 20.6762 34.137 20.7199 34.0738C20.764 34.007 20.7957 33.9531 20.8151 33.9122C20.8615 33.7663 20.8928 33.6709 20.909 33.626C20.9257 33.5775 20.9199 33.5354 20.8918 33.4996C20.8793 33.4836 20.8586 33.4757 20.8298 33.4759C20.8045 33.4764 20.7597 33.489 20.6954 33.5138C20.6094 33.5394 20.5029 33.6005 20.3759 33.697C20.2529 33.7904 20.1273 33.905 19.9991 34.041C19.8343 34.2123 19.6951 34.365 19.5816 34.4991C19.4681 34.6333 19.3772 34.7738 19.3091 34.9206C19.3003 34.9339 19.2846 34.9591 19.2621 34.996C19.2432 35.0334 19.2337 35.0521 19.2337 35.0521C19.2356 35.0668 19.226 35.1017 19.2049 35.1568C19.1843 35.2084 19.1627 35.2527 19.1402 35.2896C19.0814 35.4484 19.0393 35.6038 19.0138 35.7557C18.9887 35.9042 18.9817 36.0367 18.9929 36.1534C19.0081 36.267 19.0391 36.3537 19.086 36.4134C19.1283 36.451 19.1857 36.4687 19.2581 36.4666C19.3304 36.4645 19.4152 36.4495 19.5123 36.4215C19.6094 36.3936 19.714 36.3629 19.8262 36.3295C19.9158 36.3043 19.9987 36.2746 20.0749 36.2405C20.1511 36.2064 20.2089 36.1755 20.2483 36.1478C20.2793 36.1299 20.3174 36.1129 20.3626 36.0967C20.4118 36.0774 20.4524 36.0696 20.4844 36.0735C20.5363 36.0617 20.5719 36.0804 20.5912 36.1296C20.6105 36.1788 20.6159 36.239 20.6074 36.31C20.6014 36.3598 20.5585 36.4159 20.4789 36.4785C20.3993 36.541 20.3138 36.592 20.2225 36.6315C20.1907 36.6565 20.1484 36.6784 20.0956 36.6973C20.0468 36.7131 19.9965 36.7268 19.9446 36.7386C19.8631 36.7865 19.7641 36.8304 19.6475 36.8705C19.5309 36.9105 19.414 36.9379 19.2969 36.9526C19.1833 36.9678 19.0813 36.9609 18.9911 36.932ZM21.7748 37.1375C21.7058 37.1112 21.6222 37.0723 21.5238 37.0208C21.4255 36.9693 21.3382 36.9155 21.262 36.8594C21.1859 36.8034 21.1444 36.7587 21.1376 36.7255C21.1397 36.7077 21.1343 36.6926 21.1214 36.6802C21.1089 36.6643 21.0937 36.6553 21.076 36.6531C21.076 36.6531 21.0762 36.6514 21.0766 36.6478C21.077 36.6442 21.0785 36.6318 21.0811 36.6105C21.0828 36.5963 21.0845 36.5821 21.0862 36.5678C21.0919 36.5505 21.0865 36.5354 21.0701 36.5226C21.0516 36.4663 21.055 36.3784 21.0802 36.2588C21.109 36.1397 21.1477 36.0128 21.1964 35.878C21.249 35.7401 21.2993 35.6218 21.3473 35.523C21.3512 35.491 21.3603 35.4597 21.3749 35.429C21.3929 35.3987 21.403 35.3747 21.4052 35.3569C21.4197 35.3262 21.445 35.2806 21.4811 35.2201C21.5177 35.156 21.5602 35.0872 21.6088 35.0137C21.6577 34.9367 21.706 34.865 21.7537 34.7986C21.8017 34.7287 21.8441 34.6761 21.8808 34.6408C21.883 34.6231 21.8982 34.6015 21.9265 34.576C21.9548 34.5506 21.979 34.5139 21.9992 34.4658C22.0311 34.4408 22.0724 34.3971 22.1232 34.3347C22.1775 34.2728 22.2259 34.2155 22.2683 34.1629C22.3502 34.1115 22.4028 34.0637 22.4262 34.0197C22.4499 33.9721 22.46 33.9336 22.4563 33.9043C22.4663 33.8515 22.4872 33.8125 22.519 33.7875C22.5513 33.7589 22.5989 33.7376 22.6619 33.7236C22.7249 33.7095 22.8039 33.6974 22.8989 33.6872C23.0177 33.6583 23.1369 33.642 23.2563 33.6383C23.3793 33.6351 23.5334 33.6429 23.7186 33.6616C23.7772 33.6542 23.8225 33.6525 23.8544 33.6563C23.8869 33.6566 23.9031 33.6568 23.9031 33.6568C23.911 33.6505 23.943 33.6544 23.999 33.6683C24.055 33.6823 24.1171 33.706 24.1852 33.7394C24.2537 33.7693 24.3109 33.8032 24.3568 33.8412C24.4062 33.8796 24.4266 33.9199 24.4179 33.9621C24.4154 33.9835 24.3733 34.0036 24.2917 34.0227C24.2105 34.0381 24.1169 34.0521 24.0108 34.0645C23.9052 34.0734 23.8126 34.0785 23.7331 34.0798C23.5711 34.0783 23.4359 34.0782 23.3275 34.0796C23.2192 34.081 23.1258 34.0931 23.0473 34.1161C22.9728 34.136 22.8997 34.1741 22.828 34.2303C22.7599 34.287 22.6795 34.3711 22.5867 34.4825C22.502 34.5877 22.4393 34.6739 22.3988 34.7411C22.3586 34.8048 22.3402 34.853 22.3435 34.8859C22.3503 34.9191 22.3732 34.9381 22.4123 34.9428C22.455 34.948 22.5087 34.9508 22.5735 34.9514C22.6388 34.9485 22.6821 34.9483 22.7034 34.9509C22.7034 34.9509 22.7367 34.944 22.8032 34.9304C22.8737 34.9137 22.9596 34.9042 23.0608 34.902C23.1771 34.8943 23.2555 34.8876 23.2958 34.8816C23.3402 34.8725 23.3821 34.8686 23.4217 34.8697C23.5438 34.8736 23.6141 34.9037 23.6325 34.96C23.651 35.0163 23.633 35.0755 23.5787 35.1374C23.5279 35.1998 23.456 35.2434 23.3628 35.2682C23.3256 35.2782 23.2792 35.2888 23.2238 35.3002C23.1683 35.3115 23.1166 35.3215 23.0687 35.3302C23.0212 35.3353 22.9904 35.337 22.9762 35.3352C22.9762 35.3352 22.9615 35.3371 22.9322 35.3408C22.9069 35.3413 22.8712 35.3388 22.825 35.3333C22.8143 35.332 22.7619 35.3329 22.6678 35.336C22.5741 35.3355 22.4858 35.3357 22.4028 35.3365C22.2745 35.3535 22.1771 35.3688 22.1106 35.3824C22.048 35.3929 22.0006 35.4124 21.9683 35.441C21.936 35.4696 21.9014 35.5177 21.8644 35.5853C21.823 35.6597 21.7837 35.7469 21.7464 35.8469C21.7095 35.9434 21.678 36.0406 21.6518 36.1384C21.6291 36.2366 21.6151 36.3233 21.6096 36.3983C21.6082 36.4703 21.6184 36.5202 21.6403 36.548C21.6961 36.6233 21.7763 36.6762 21.8807 36.7068C21.9857 36.7339 22.0967 36.74 22.2138 36.7253C22.3345 36.711 22.4408 36.6823 22.5325 36.6393C22.5635 36.6214 22.5998 36.6041 22.6415 36.5875C22.6871 36.5678 22.7303 36.5531 22.7711 36.5436C22.8208 36.5208 22.8574 36.5162 22.881 36.5298C22.9081 36.5439 22.9525 36.5799 23.014 36.6378C23.0641 36.7304 23.0507 36.8117 22.9738 36.8817C22.9008 36.9487 22.7597 37.0128 22.5504 37.0741C22.3575 37.1194 22.2046 37.146 22.0919 37.1541C21.9827 37.1626 21.877 37.157 21.7748 37.1375Z" fill="white"></path></svg>